<svg width="740" height="680" viewBox="0 0 740 680" fill="none" xmlns="http://www.w3.org/2000/svg">
<g clip-path="url(#clip0_1_3)">
<path fill-rule="evenodd" clip-rule="evenodd" d="M53.8113 519.875C70.1176 435.901 235.118 483.74 343.29 457.779C451.462 431.819 579.439 310.915 664.137 370.14C748.834 429.364 658.717 572.527 464.458 604.834C270.198 637.141 37.505 603.848 53.8113 519.875Z" fill="#F2F2F2"/>
<g opacity="0.5">
<path fill-rule="evenodd" clip-rule="evenodd" d="M96.908 127.672C95.335 129.243 95.946 134.824 95.9131 136.89C95.8625 140.105 96.0626 143.292 96.3314 146.496C96.5115 148.642 97.5269 169.114 100.353 167.542C101.946 166.656 100.947 160.734 100.944 158.86C100.938 154.696 100.764 150.542 100.487 146.386C100.229 142.529 100.067 138.716 100.215 134.851C100.251 133.908 101.134 123.439 96.908 127.672Z" fill="#89C5CC"/>
<path fill-rule="evenodd" clip-rule="evenodd" d="M165.409 125.149C151.896 125.256 138.388 125.923 124.881 126.331C118.381 126.528 111.886 126.778 105.394 127.138C103.181 127.261 98.4362 126.552 96.593 127.731C92.5013 130.348 99.1002 130.96 100.859 130.896C127.59 129.927 154.329 128.65 181.082 128.59C194.206 128.561 207.323 128.934 220.448 128.851C225.465 128.819 231.02 126.657 232.287 132.497C233.717 139.086 232.074 146.423 231.627 153.045C231.329 157.465 231.435 161.794 231.634 166.211C231.762 169.04 231.429 172.228 231.93 175.005C232.411 177.679 234.333 179.282 236.095 176.287C237.148 174.497 236.624 170.078 236.694 168.005C236.788 165.213 236.7 162.421 236.7 159.628C236.699 152.811 237.661 146.021 237.534 139.206C237.452 134.811 237.219 126.844 231.676 125.788C225.572 124.625 218.069 125.794 211.822 125.723C196.344 125.546 180.892 125.028 165.409 125.149Z" fill="#89C5CC"/>
<path fill-rule="evenodd" clip-rule="evenodd" d="M128.174 167.786C123.078 167.786 117.982 167.817 112.887 167.901C108.517 167.973 101.647 167.063 97.5795 168.626C94.7952 169.696 94.0556 172.805 97.5795 173.633C101.423 174.536 107.215 173.059 111.236 172.988C131.4 172.632 151.758 172.168 171.894 173.444C190.762 174.638 209.993 175.797 228.888 174.536C230.478 174.43 238.586 174.107 234.886 171.068C232.728 169.294 223.979 170.46 221.174 170.375C211.28 170.077 201.376 170.011 191.485 169.636C181.722 169.265 172.004 168.168 162.238 167.896C150.893 167.58 139.523 167.786 128.174 167.786Z" fill="#89C5CC"/>
<path fill-rule="evenodd" clip-rule="evenodd" d="M123.075 138.804C131.017 139.151 138.875 150.669 130.839 156.235C123.3 161.459 109.172 155.734 113.364 145.606C112.761 147.07 114.126 144.015 114.143 143.995C114.94 143.056 116.371 142.016 117.354 141.276C118.478 140.428 119.649 139.496 121.005 139.071C121.895 138.792 121.755 139.841 123.075 138.804ZM119.207 134.65C115.49 136.101 113.794 137.738 111.239 140.701C109.472 142.751 107.219 143.83 107.239 146.6C107.243 147.213 108.031 147.887 108.167 148.478C108.355 149.294 108.137 150.34 108.286 151.207C109.824 160.156 120.501 163.174 128.317 161.484C135.125 160.012 140.217 153.477 138.64 146.37C137.052 139.216 126.444 131.819 119.207 134.65Z" fill="#89C5CC"/>
<path fill-rule="evenodd" clip-rule="evenodd" d="M115.896 147.143C115.896 150.362 120.982 150.362 120.982 147.143C120.982 143.96 115.896 143.823 115.896 147.143Z" fill="#89C5CC"/>
<path fill-rule="evenodd" clip-rule="evenodd" d="M122.258 146.491C122.258 149.049 126.299 149.049 126.299 146.491C126.299 143.962 122.258 143.854 122.258 146.491Z" fill="#89C5CC"/>
<path fill-rule="evenodd" clip-rule="evenodd" d="M123.51 151.767C122.216 152.264 120.574 151.233 119.512 151.912C117.631 153.117 119.517 154.206 120.525 154.69C125.066 156.869 125.873 150.861 123.51 151.767Z" fill="#89C5CC"/>
<path fill-rule="evenodd" clip-rule="evenodd" d="M192.85 144.632C192.715 144.689 192.233 144.893 192.85 144.632ZM173.078 141.742C169.679 142.509 166.81 145.683 163.118 145.258C160.289 144.933 158.373 142.202 155.58 141.806C152.007 141.298 142.282 149.448 147.395 150.847C150.378 151.663 152.033 146.212 154.668 145.922C156.753 145.693 159.588 148.25 161.748 148.614C165.778 149.293 168.546 147.073 172.084 145.641C175.928 144.086 178.115 145.487 181.458 147.216C184.097 148.58 186.583 149.469 189.602 148.906C192.436 148.378 195.997 145.463 198.849 145.762C201.643 146.055 203.637 148.971 206.511 149.242C207.696 149.353 209.46 149.757 209.261 147.928C209.101 146.465 207.468 146.713 206.446 146.18C203.818 144.812 201.36 142.388 198.189 142.595C195.803 142.751 193.631 144.427 191.433 145.229C184.233 147.855 180.185 140.148 173.078 141.742Z" fill="#89C5CC"/>
<path fill-rule="evenodd" clip-rule="evenodd" d="M179.093 188.111C165.204 188.239 151.268 188.445 137.419 189.558C134.135 189.822 100.608 192.988 100.672 193.216C100.789 193.637 105.102 194.282 105.075 194.381C104.784 193.661 104.12 193.362 103.082 193.487C134.879 193.487 166.576 190.64 198.416 191.152C206.416 191.28 214.446 191.227 222.441 191.479C224.436 191.542 229.382 192.972 230.949 192.071C235.063 189.706 227.589 189.433 226.352 189.333C210.683 188.08 194.805 187.954 179.093 188.111Z" fill="#69A1AC"/>
<path fill-rule="evenodd" clip-rule="evenodd" d="M96.5557 194.859C94.4794 196.941 96.3914 204.43 96.4731 207.245C96.5915 211.314 96.494 215.412 96.851 219.471C97.2587 224.107 97.891 229.047 99.1074 233.545C99.7774 236.023 102.129 239.961 103.061 235.458C103.726 232.242 102.716 227.976 102.364 224.7C101.894 220.317 101.78 215.992 101.763 211.587C101.747 207.75 101.673 203.896 101.358 200.071C101.195 198.084 100.196 191.238 96.5557 194.859Z" fill="#69A1AC"/>
<path fill-rule="evenodd" clip-rule="evenodd" d="M148.794 232.998C138.938 233.167 129.061 233.4 119.222 234.015C115.189 234.268 111.159 234.644 107.142 235.07C106.322 235.157 97.2467 235.525 101.302 238.874C103.132 240.387 110.661 238.296 113.148 238.078C117.33 237.711 121.511 237.473 125.706 237.296C135.424 236.883 145.172 236.519 154.9 236.687C172.667 236.996 190.319 237.133 208.09 236.737C210.615 236.681 230.396 237.209 231.068 234.583C231.609 232.466 224.535 233.437 223.245 233.475C218.514 233.617 213.782 233.584 209.049 233.56C188.997 233.457 168.83 232.659 148.794 232.998Z" fill="#69A1AC"/>
<path fill-rule="evenodd" clip-rule="evenodd" d="M227.719 191.347C228.032 200.122 229.526 208.887 230.004 217.689C230.222 221.712 230.479 225.732 230.676 229.757C230.74 231.055 230.217 234.184 231.752 234.931C233.858 235.955 234.142 233.891 234.536 232.495C235.675 228.462 234.904 223.223 234.801 219.081C234.701 215.07 234.694 211.051 234.398 207.047C234.095 202.956 233.272 198.943 232.889 194.867C232.728 193.143 233.293 190.274 231.463 189.204C229.881 188.279 227.65 189.445 227.719 191.347Z" fill="#69A1AC"/>
<path fill-rule="evenodd" clip-rule="evenodd" d="M130.845 205.944C130.882 205.973 130.919 206.002 130.957 206.031C130.919 206.002 130.882 205.973 130.845 205.944ZM122.469 203.344C125.592 204.236 128.157 203.904 131.141 206.177C133.614 208.062 136.151 210.821 136.971 213.869C138.867 220.911 132.441 224.771 126.418 224.847C120.248 224.924 111.115 223.493 111.431 215.585C111.674 209.509 116.111 203.58 122.469 203.344ZM122.689 199.364C114.59 199.767 108.057 208.863 108.127 216.518C108.212 225.797 118.725 228.188 126.194 228.252C134.623 228.324 143.028 222.504 140.77 213.025C138.96 205.431 130.477 198.959 122.689 199.364Z" fill="#69A1AC"/>
<path fill-rule="evenodd" clip-rule="evenodd" d="M114.542 211.822C114.542 214.41 118.63 214.41 118.63 211.822C118.63 209.265 114.542 209.155 114.542 211.822Z" fill="#69A1AC"/>
<path fill-rule="evenodd" clip-rule="evenodd" d="M123.117 210.687C123.117 213.295 127.238 213.295 127.238 210.687C127.238 208.109 123.117 207.998 123.117 210.687Z" fill="#69A1AC"/>
<path fill-rule="evenodd" clip-rule="evenodd" d="M118.39 216.589C115.729 219.245 125.076 223.902 127.281 220.207C129.092 217.171 125.149 218.178 123.752 218.014C122.233 217.835 119.629 215.352 118.39 216.589Z" fill="#69A1AC"/>
<path fill-rule="evenodd" clip-rule="evenodd" d="M193.124 210.74C192.868 210.848 192.868 210.848 193.124 210.74ZM158.022 206.416C155.328 206.921 146.486 209.904 146.367 213.1C146.148 218.91 154.808 212.959 156.688 212.195C161.796 210.119 164.48 214.354 169.612 214.577C174.068 214.771 178.166 210.957 182.364 211.408C186.763 211.881 188.879 216.56 193.956 214.076C196.643 212.762 196.575 210.735 193.559 210.544C191.737 210.429 190.484 211.182 188.584 210.398C185.612 209.172 184.415 207.176 180.859 207.493C178.175 207.733 175.75 209.245 173.13 209.831C167.132 211.171 163.805 205.332 158.022 206.416Z" fill="#69A1AC"/>
<path fill-rule="evenodd" clip-rule="evenodd" d="M213.818 213.263C213.632 213.341 213.632 213.341 213.818 213.263ZM214.497 210.844C214.527 210.857 214.73 211.139 214.497 210.844ZM211.409 208.997C211.293 209.087 211.293 209.087 211.409 208.997ZM211.476 208.974C212.075 209.333 216.89 212.625 213.393 213.401C211.617 213.794 210.148 210.222 211.476 208.974ZM209.882 205.327C202.169 208.844 210.469 221.429 216.522 216.315C219.069 214.164 219.404 209.815 216.926 207.573C215.442 206.23 211.897 204.406 209.882 205.327Z" fill="#69A1AC"/>
<path fill-rule="evenodd" clip-rule="evenodd" d="M137.477 254.921C127.852 254.924 118.143 254.722 108.531 255.292C106.914 255.388 100.752 255.08 99.9184 256.771C98.3937 259.864 104.734 258.329 105.655 258.236C124.793 256.32 144.784 257.423 163.985 257.969C179.689 258.415 195.308 258.692 210.993 259.502C215.116 259.714 219.235 259.949 223.355 260.198C224.698 260.279 228.078 261.169 228.361 259.024C228.623 257.039 224.407 257.487 223.354 257.432C214.979 256.991 206.61 256.529 198.237 256.058C178.085 254.922 157.661 254.917 137.477 254.921Z" fill="#89C5CC"/>
<path fill-rule="evenodd" clip-rule="evenodd" d="M99.6094 258.36C97.8117 260.147 98.6543 266.971 98.6042 269.226C98.5165 273.171 98.3303 277.113 98.2467 281.056C98.1599 285.178 98.2806 289.319 98.5243 293.435C98.6265 295.163 100.045 303.515 102.278 298.735C103.276 296.599 102.254 290.65 102.269 288.23C102.297 283.826 102.534 279.44 102.753 275.041C102.942 271.26 102.949 267.475 103.114 263.693C103.166 262.487 103.309 254.649 99.6094 258.36Z" fill="#89C5CC"/>
<path fill-rule="evenodd" clip-rule="evenodd" d="M229.98 293.595C220.613 294.555 211.096 294.102 201.694 294.811C193.591 295.422 185.495 295.672 177.371 295.844C158.975 296.232 140.547 296.611 122.204 298.144C118.024 298.493 113.849 298.864 109.657 299.051C107.561 299.144 98.7643 298.19 98.1092 300.4C96.9935 304.164 106.4 302.674 108.429 302.615C112.891 302.487 117.332 302.164 121.781 301.825C140.485 300.4 159.259 299.974 178.003 299.382C188.196 299.06 198.319 298.314 208.49 297.636C213.56 297.298 218.643 297.287 223.712 296.959C225.039 296.873 229.734 297.042 230.688 295.975C231.343 295.242 231.509 293.453 229.98 293.595Z" fill="#89C5CC"/>
<path fill-rule="evenodd" clip-rule="evenodd" d="M226.805 259C227.126 267.983 227.634 276.958 227.937 285.94C228.028 288.641 227.212 293.482 228.716 295.864C231.135 299.695 233.023 295.641 233.466 293.254C234.863 285.721 233.361 277.4 232.97 269.82C232.822 266.929 233.719 260.493 232.322 257.905C230.991 255.44 226.686 255.687 226.805 259Z" fill="#89C5CC"/>
<path fill-rule="evenodd" clip-rule="evenodd" d="M211.079 271.793C214.668 272.766 215.192 280.567 211.143 281.145C205.116 282.003 207.752 273.402 211.079 271.793ZM210.074 268.691C208.979 268.657 206.453 268.355 205.778 269.246C205.214 269.992 205.784 271.565 205.718 272.275C205.481 274.813 203.417 276.279 204.34 279.276C204.966 281.31 206.643 283.221 208.687 283.927C219.472 287.655 219.341 266.816 210.074 268.691Z" fill="#89C5CC"/>
<path fill-rule="evenodd" clip-rule="evenodd" d="M112.702 270.091C112.675 270.125 112.648 270.159 112.622 270.194C112.648 270.159 112.675 270.125 112.702 270.091ZM121.173 265.584C121.131 265.223 121.088 264.862 121.046 264.501C126.894 267.261 131.547 272.396 129.605 279.288C128.124 284.546 122.771 286.411 117.784 285.113C112.264 283.675 109.626 279.125 111.114 273.538C111.801 270.96 113.909 267.496 116.635 266.667C117.904 266.281 120.71 267.265 121.173 265.584ZM117.753 263.401C116.274 263.501 114.834 264.117 113.627 264.96C114.757 264.004 116.263 263.435 117.753 263.401ZM117.796 260.005C114.142 260.117 111.747 262.329 109.58 264.985C108.9 265.819 106.6 268.03 106.885 269.153C107.11 270.042 107.699 271.34 108.94 270.35C102.442 283.3 119.228 294.346 129.475 285.34C139.038 276.936 129.55 259.611 117.796 260.005Z" fill="#89C5CC"/>
<path fill-rule="evenodd" clip-rule="evenodd" d="M114.476 272.035C114.476 273.759 117.153 273.759 117.153 272.035C117.153 270.31 114.476 270.31 114.476 272.035Z" fill="#89C5CC"/>
<path fill-rule="evenodd" clip-rule="evenodd" d="M119.044 272.329C119.044 274.081 121.764 274.081 121.764 272.329C121.764 270.576 119.044 270.576 119.044 272.329Z" fill="#89C5CC"/>
<path fill-rule="evenodd" clip-rule="evenodd" d="M121.117 278.484C119.845 278.587 115.186 278.154 114.369 279.269C113.002 281.132 115.183 281.197 116.254 281.398C117.219 281.579 121.413 281.477 122.004 280.62C122.526 279.863 122.404 278.374 121.117 278.484Z" fill="#89C5CC"/>
<path fill-rule="evenodd" clip-rule="evenodd" d="M177.241 273.653C177.022 273.743 177.022 273.743 177.241 273.653ZM159.64 272.366C156.773 272.577 154.344 274.226 151.602 274.884C148.676 275.587 147.409 274.295 144.748 273.449C141.98 272.569 140.011 272.917 137.786 274.807C136.526 275.878 133.76 278.344 134.548 280.247C136.352 284.602 140.436 277.516 142.357 277.186C145.353 276.672 148.019 279.292 151.475 278.543C154.606 277.864 157.384 275.714 160.654 275.691C163.389 275.671 165.966 277.168 168.666 277.53C172.788 278.083 175.494 276.619 179.304 275.533C182.608 274.591 184.924 275.833 188.032 276.878C189.452 277.355 194.191 279.091 193.319 275.943C193.072 275.054 186.827 273.464 185.859 273.158C182.445 272.08 180.283 272.5 177.03 273.74C174.318 274.775 172.036 275.279 169.128 274.71C165.924 274.082 163.01 272.11 159.64 272.366Z" fill="#89C5CC"/>
</g>
<g opacity="0.5">
<path fill-rule="evenodd" clip-rule="evenodd" d="M291.575 128.012C292.038 118.055 292.674 108.113 293.009 98.1504C293.176 93.2137 293.306 88.2765 293.432 83.3388C293.459 82.2393 293.488 81.1403 293.513 80.0408C293.594 76.3056 293.151 76 296.91 75.6685C313.679 74.1883 330.515 73.6977 347.304 72.3585C367.553 70.7433 387.907 69.6281 408.213 69.1282C417.236 68.9056 426.298 68.4447 435.323 68.7252C437.323 68.7874 441.247 68.2671 442.035 69.8215C442.375 70.4929 441.661 72.8036 441.571 73.5785C441.288 75.9991 441.024 78.428 440.861 80.8607C439.901 95.2081 440.473 109.917 443.251 124.047C436.734 120.372 428.5 117.211 420.904 117.838C413.16 118.478 407.367 122.952 401.168 127.071C397.662 129.4 396.481 130.012 392.983 127.756C389.968 125.811 387.116 123.588 384.272 121.405C379.883 118.037 375.741 114.386 371.485 110.855C363.66 104.363 352.878 95.1223 342.07 97.8429C334.348 99.7868 327.218 104.031 320.516 108.184C310.558 114.355 301.545 121.912 291.575 128.012ZM425.779 64.3037C387.306 64.3037 349.121 68.0334 310.756 70.051C306.749 70.2615 302.756 70.5718 298.764 70.9571C296.103 71.214 289.596 70.1354 287.852 72.409C286.688 73.9258 287.688 74.1535 287.852 75.5947C288.058 77.4111 287.936 79.5632 287.883 81.4858C287.755 86.1183 287.62 90.7504 287.515 95.3834C287.118 112.893 286.869 130.4 287.578 147.905C287.733 151.723 289.124 157.009 288.363 160.719C287.812 163.405 285.97 165.039 290.218 165.535C294.398 166.024 299.509 164.781 303.693 164.384C307.901 163.983 312.108 163.548 316.321 163.201C334.638 161.692 353.133 161.92 371.499 161.418C390.029 160.912 408.567 160.88 427.104 160.869C434.86 160.865 443.723 161.301 451.291 159.167C453.953 158.415 454.384 158.045 453.727 155.404C453.603 154.902 452.799 154.717 452.563 153.811C452.242 152.578 452.407 151.079 452.332 149.796C452.087 145.604 452.001 141.404 451.804 137.21C451.474 130.201 450.266 123.399 449.372 116.461C448.341 108.449 448.394 100.313 448.373 92.2482C448.361 87.7747 448.476 83.3161 448.835 78.8551C449.066 75.994 450.475 71.7222 449.76 69.054C449.404 67.7255 448.822 66.6719 447.439 66.1001C446.563 65.7375 445.827 66.0213 444.96 65.9295C443.933 65.8205 443.292 65.6763 442.062 65.3976C436.789 64.2026 431.151 64.3037 425.779 64.3037Z" fill="#69A1AC"/>
<path fill-rule="evenodd" clip-rule="evenodd" d="M404.487 83.3524C404.484 86.1408 404.049 90.2553 405.335 92.8809C406.965 96.2113 409.005 95.1703 409.545 92.0406C409.855 90.2474 409.847 84.9407 409.271 83.3524C408.456 81.1043 404.487 79.5731 404.487 83.3524Z" fill="#89C5CC"/>
<path fill-rule="evenodd" clip-rule="evenodd" d="M409.165 84.4291C406.548 84.5214 398.924 83.893 397.153 85.9979C394.115 89.6079 399.404 90.2474 401.675 90.0452C404.303 89.8115 412.423 90.3818 414.183 88.2747C417.127 84.7495 411.224 84.354 409.165 84.4291Z" fill="#89C5CC"/>
<path fill-rule="evenodd" clip-rule="evenodd" d="M307.583 177.579C319.091 179.578 315.511 197.125 304.621 193.06C300.827 191.644 295.237 187.552 297.334 182.731C298.9 179.129 304.006 177.236 307.583 177.579ZM302.818 172.124C295.334 173.384 290.217 181.483 292.783 188.548C295.259 195.363 304.648 200.354 311.573 197.905C318.183 195.566 321.481 186.771 319.253 180.337C316.924 173.615 309.338 171.026 302.818 172.124Z" fill="#89C5CC"/>
<path fill-rule="evenodd" clip-rule="evenodd" d="M372.816 179.632C369.951 179.87 367.475 181.876 364.592 182.231C361.896 182.563 359.662 181.64 357.138 180.903C354.087 180.012 351.289 179.621 348.171 180.412C345.789 181.017 343.439 182.638 340.964 182.834C336.094 183.218 330.434 177.662 326.632 183.947C324.809 186.959 327.456 188.9 330.182 187.495C333.024 186.03 331.629 185.506 335.155 186.371C338.096 187.092 340.474 187.484 343.42 186.473C346.089 185.558 348.433 183.883 351.333 183.694C354.174 183.51 356.645 184.804 359.36 185.362C362.699 186.049 365.653 185.529 368.817 184.483C371.826 183.487 373.027 182.943 376.064 183.831C377.986 184.393 382.187 186.18 384.058 184.74C387.294 182.251 382.962 181.887 381.256 181.533C378.509 180.964 375.667 179.398 372.816 179.632Z" fill="#89C5CC"/>
<path fill-rule="evenodd" clip-rule="evenodd" d="M438.384 177.959C438.407 177.977 438.43 177.995 438.452 178.012C438.43 177.995 438.406 177.977 438.384 177.959ZM435.571 177.371C439.754 177.64 444.277 185.26 438.735 185.531C434.834 185.721 430.469 179.049 435.571 177.371ZM434.984 171.136C421.758 174.829 427.804 193.477 440.562 191.323C446.357 190.344 448.321 183.631 446.405 178.661C445.582 176.527 443.978 174.727 442.061 173.499C440.647 172.592 436.601 170.686 434.984 171.136Z" fill="#89C5CC"/>
<path fill-rule="evenodd" clip-rule="evenodd" d="M292.755 290.317C292.365 288.581 292.576 285.929 292.555 285.316C292.452 282.441 292.417 279.565 292.306 276.691C292.042 269.843 291.867 262.956 291.34 256.123C290.835 249.591 289.562 243.258 289.525 236.678C289.5 232.227 288.264 220.951 292.161 217.928C298.859 214.02 296.21 227.81 296.1 230.197C295.77 237.383 296.218 244.252 296.942 251.392C297.604 257.936 296.842 264.451 296.588 270.996C296.453 274.471 296.379 277.94 296.118 281.409C296.036 282.49 296.162 287.365 295.594 289.961C297.055 289.898 298.444 289.963 299.219 289.94C304.645 289.776 310.072 289.632 315.497 289.428C336.367 288.643 357.249 288.998 378.115 288.007C397.851 287.069 417.66 286.87 437.411 286.628C439.139 286.778 439.912 288.592 438.803 289.986C437.718 291.35 432.687 291.051 431.119 291.177C425.556 291.624 420.004 291.825 414.424 291.879C402.674 291.991 390.968 292.494 379.237 293.163C358.394 294.351 337.521 294.253 316.667 295.101C311.605 295.307 306.542 295.461 301.478 295.594C298.807 295.664 291.814 297.272 290.491 294.081C289.556 291.827 290.855 290.789 292.755 290.317ZM408.206 209.158C414.52 209.1 420.8 209.21 427.105 209.572C429.901 209.732 432.696 209.887 435.495 210.005C437.111 210.074 440.804 209.544 442.222 210.294C447.788 213.238 436.448 213.561 435.07 213.538C429.285 213.441 423.511 212.99 417.727 212.848C396.452 212.326 375.019 213.62 353.763 214.492C343.538 214.912 333.318 214.972 323.097 215.546C317.51 215.86 311.927 216.219 306.339 216.513C303.763 216.649 301.186 216.781 298.607 216.846C297.018 216.886 293.782 217.544 292.313 216.943C291.063 216.432 290.052 215.717 290.739 214.202C291.479 212.571 294.702 213.265 296.065 213.238C300.989 213.143 305.902 212.866 310.817 212.566C321.977 211.882 333.113 211.083 344.295 210.893C365.605 210.529 386.886 209.356 408.206 209.158ZM437.519 216.42C437.522 213.498 441.026 212.911 442.58 214.898C444.067 216.799 443.11 222.553 443.146 224.827C443.266 232.321 443.974 239.772 444.647 247.231C445.315 254.629 445.788 262.031 446.303 269.44C446.542 272.865 449.174 286.533 445.349 288.528C440.467 291.074 441.388 278.119 441.251 275.757C440.812 268.155 440.261 260.543 439.573 252.96C438.461 240.7 437.509 228.729 437.519 216.42Z" fill="#69A1AC"/>
<path fill-rule="evenodd" clip-rule="evenodd" d="M373.043 251.61C379.737 253.989 386.393 256.474 393.02 259.035C396.566 260.404 400.093 261.819 403.631 263.208C405.403 263.904 412.772 265.65 413.196 267.42C413.794 269.919 405.939 266.85 404.689 266.45C401.159 265.322 397.673 264.059 394.186 262.802C386.386 259.992 378.619 257.093 370.788 254.368C370.056 254.113 369.323 253.859 368.59 253.606C360.278 257.34 351.982 261.109 343.714 264.938C339.28 266.992 334.871 269.093 330.473 271.222C327.213 272.801 321.312 277.306 317.721 277.227C316.362 277.197 315.446 276.906 315.304 275.259C315.123 273.153 318.516 272.287 319.887 271.602C324.587 269.251 329.316 266.96 334.059 264.698C343.479 260.205 352.987 255.891 362.529 251.663C362.583 251.639 362.638 251.615 362.693 251.59C357.401 249.799 352.095 248.051 346.777 246.34C343.737 245.362 322.427 240.103 323.204 237.28C324.077 234.115 342.951 241.577 345.854 242.502C353.001 244.779 360.128 247.121 367.218 249.57C384.232 241.926 401.427 233.782 419.174 228.22C420.291 227.87 420.998 229.022 420.744 229.989C420.404 231.284 416.424 232.331 415.319 232.824C410.948 234.776 406.555 236.68 402.185 238.633C392.663 242.888 383.123 247.102 373.602 251.36C373.416 251.443 373.229 251.527 373.043 251.61Z" fill="#89C5CC"/>
<path fill-rule="evenodd" clip-rule="evenodd" d="M310.108 305.133C314.459 305.896 317.529 310.071 317.052 314.443C316.406 320.349 310.519 323.057 305.08 322.286C298.909 321.411 297.611 316.194 300.601 311.176C301.263 310.065 302.024 308.735 303.228 308.15C304.055 307.748 305.109 308.103 305.775 307.779C308.111 306.643 306.706 304.832 310.108 305.133ZM308.126 301.275C302.816 301.953 293.004 308.098 293.501 314.246C293.932 314.959 294.58 315.25 295.445 315.121C295.237 316.453 295.305 317.77 295.649 319.074C296.153 320.766 297.159 322.153 298.508 323.255C301.285 325.524 305.081 326.081 308.539 325.683C314.996 324.941 320.084 320.528 320.447 313.812C320.801 307.257 315.079 300.397 308.126 301.275Z" fill="#89C5CC"/>
<path fill-rule="evenodd" clip-rule="evenodd" d="M333.846 309.275C331.463 310.537 327.694 312.477 326.297 314.875C324.821 317.408 326.349 320.179 329.459 318.981C331.928 318.03 333.498 315.008 336.132 314.039C338.456 313.184 339.392 313.62 341.849 314.471C344.38 315.348 346.592 316.196 349.328 315.981C352.767 315.71 355.745 313.716 359.111 313.263C361.945 312.881 364.282 313.983 366.996 314.422C370.145 314.931 372.204 313.739 375.15 313.118C377.154 312.696 380.686 314.414 382.148 313.771C385.434 312.326 381.957 310.56 380.138 309.976C377.073 308.993 375.187 309.86 372.272 310.676C369.107 311.561 367.74 310.895 364.714 310.082C358.593 308.438 353.864 312.415 348.062 311.692C342.691 311.022 339.476 306.293 333.846 309.275Z" fill="#89C5CC"/>
<path fill-rule="evenodd" clip-rule="evenodd" d="M433.935 306.336C439.827 311.86 433.208 319.719 426.712 315.304C424.426 313.751 424.389 311.255 426.168 309.022C427.796 306.98 431.371 306.184 433.935 306.336ZM431.751 301.872C426.247 302.943 421.055 305.469 420.556 311.822C420.07 318.02 426.428 320.899 431.769 320.493C443.76 319.58 442.893 299.719 431.751 301.872Z" fill="#89C5CC"/>
</g>
<path opacity="0.5" fill-rule="evenodd" clip-rule="evenodd" d="M562.139 96.0057C557.736 96.0908 546.863 97.6923 545.247 102.901C544.02 106.854 547.665 105.986 549.618 104.548C552.261 102.602 554.578 101.438 557.853 100.846C570.326 98.5899 582.311 106.681 594.665 107.704C599.345 108.092 604.992 108.344 609.46 106.829C612.642 105.749 613.057 103.396 609.426 103.038C606.341 102.733 602.927 103.693 599.764 103.666C586.675 103.554 575.04 95.7596 562.139 96.0057Z" fill="#C1DEE2"/>
<g opacity="0.5">
<path fill-rule="evenodd" clip-rule="evenodd" d="M99.509 343.362C91.0848 343.456 82.6647 343.767 74.2572 344.299C66.2618 344.806 57.5867 344.421 49.7217 345.971C47.4883 346.411 44.4715 348.446 47.441 350.685C49.5283 352.259 57.1648 350.449 59.6573 350.296C68.8364 349.731 78.02 349.056 87.212 348.731C95.914 348.423 104.615 348.315 113.322 348.228C114.651 348.215 116.857 347.789 118.181 348.175C120.083 348.729 119.632 348.88 119.774 351.294C120.032 355.668 119.961 360.058 119.874 364.436C119.79 368.673 119.634 372.909 119.649 377.148C119.659 380.172 118.693 386.181 120.21 388.808C122.394 392.588 124.66 388.482 124.823 385.97C125.136 381.165 124.996 376.302 124.997 371.491C124.998 366.976 125.031 362.46 124.872 357.947C124.756 354.687 125.222 348.996 123.466 346.032C121.677 343.013 117.371 343.664 114.228 343.52C109.326 343.295 104.415 343.311 99.509 343.362Z" fill="#89C5CC"/>
<path fill-rule="evenodd" clip-rule="evenodd" d="M45.9096 348.81C45.9189 357.295 44.9374 365.722 44.6624 374.197C44.5363 378.093 44.2804 382.371 45.2661 386.196C46.261 390.058 49.4212 390.895 49.7851 386.583C50.5223 377.853 50.3415 368.8 50.9155 360C51.1181 356.892 52.4367 351.198 51.2057 348.289C50.1217 345.726 45.905 345.234 45.9096 348.81Z" fill="#89C5CC"/>
<path fill-rule="evenodd" clip-rule="evenodd" d="M124.906 386.208C110.276 388.144 94.9816 387.438 80.2473 387.743C73.1783 387.889 66.1106 387.898 59.0407 387.972C56.5732 387.997 50.3072 387.059 48.1726 388.446C44.7746 390.654 48.4614 392.358 50.711 392.407C64.6631 392.712 78.7706 392.071 92.72 391.613C98.9874 391.407 105.275 391.307 111.526 390.774C115.374 390.446 119.579 390.128 123.316 389.094C124.112 388.874 125.846 388.919 126.024 387.833C126.134 387.162 125.935 386.066 124.906 386.208Z" fill="#89C5CC"/>
<path fill-rule="evenodd" clip-rule="evenodd" d="M64.0702 398.54C60.0041 398.564 47.7512 396.675 46.0673 400.64C43.8224 405.928 52.58 404.694 54.9352 404.633C60.2846 404.496 65.6303 404.481 70.9811 404.484C76.2313 404.486 81.4811 404.452 86.7303 404.327C88.2511 404.291 91.7909 404.922 92.6658 403.091C93.3306 401.699 92.8053 400.601 91.579 399.864C88.6284 398.091 80.9632 399.119 77.5086 398.96C73.036 398.754 68.5484 398.54 64.0702 398.54Z" fill="#89C5CC"/>
<path fill-rule="evenodd" clip-rule="evenodd" d="M113.537 399.519C111.213 399.657 106.513 398.699 104.431 399.763C102.065 400.972 102.899 402.864 104.941 403.696C106.356 404.272 112.159 403.97 113.537 403.303C114.973 402.607 116.597 399.331 113.537 399.519Z" fill="#89C5CC"/>
<path fill-rule="evenodd" clip-rule="evenodd" d="M139.013 349.643C136.531 350.324 137.284 364.414 137.22 366.647C137.045 372.767 136.357 380.464 138.39 386.358C139.687 390.115 142.178 389.605 141.753 385.65C141.381 382.178 140.741 378.746 140.464 375.252C139.839 367.345 138.987 358.911 139.578 350.997C139.83 351.457 142.184 355.722 142.738 355.404C142.571 355.503 140.023 349.377 139.013 349.643Z" fill="#89C5CC"/>
<path fill-rule="evenodd" clip-rule="evenodd" d="M166.93 344.453C161.907 344.528 156.885 344.617 151.864 344.756C147.871 344.867 141.598 344.211 137.937 345.891C133.577 347.89 135.645 352.345 139.74 352.439C143.363 352.523 147.226 351.706 150.881 351.581C160.754 351.243 170.645 351.171 180.522 351.086C189.456 351.009 198.769 351.962 207.624 350.62C208.937 362.283 205.385 373.995 206.593 385.792C206.78 387.623 206.696 390.21 209.028 390.627C211.971 391.154 212.092 388.239 212.203 386.152C212.522 380.193 212.349 374.229 212.786 368.262C213.19 362.732 213.986 357.081 213.313 351.542C212.486 344.727 209.22 345.273 203.447 344.99C191.254 344.392 179.137 344.274 166.93 344.453Z" fill="#89C5CC"/>
<path fill-rule="evenodd" clip-rule="evenodd" d="M150.098 385.866C147.538 385.931 143.288 385.142 141.648 387.596C139.942 390.15 141.966 392.377 144.447 392.901C147.384 393.521 151.213 392.671 154.261 392.662C157.435 392.652 160.61 392.688 163.784 392.7C177.392 392.753 191.058 392.959 204.657 392.397C206.556 392.318 211.946 392.955 213.26 391.133C214.426 389.518 213.61 388.069 212.074 387.246C209.554 385.895 204.378 386.409 201.575 386.302C198.113 386.17 194.646 386.127 191.183 386.073C177.511 385.862 163.768 385.528 150.098 385.866Z" fill="#89C5CC"/>
<path fill-rule="evenodd" clip-rule="evenodd" d="M161.609 397.67C156.517 397.757 151.083 397.534 146.041 398.306C141.608 398.985 141.062 403.271 145.834 403.772C150.22 404.233 155.537 403.372 159.944 403.089C161.509 402.988 163.329 403.131 164.079 401.401C164.862 399.593 163.365 397.859 161.609 397.67Z" fill="#89C5CC"/>
<path fill-rule="evenodd" clip-rule="evenodd" d="M200.108 398.12C197.39 398.188 189.451 397.019 188.104 400.124C185.863 405.292 196.611 403.329 198.673 403.253C201.272 403.157 211.4 404.675 211.402 400.538C211.404 396.481 202.597 398.059 200.108 398.12Z" fill="#89C5CC"/>
<path fill-rule="evenodd" clip-rule="evenodd" d="M45.4701 423.804C45.4766 433.207 44.8915 442.697 45.7492 452.076C46.1039 455.955 46.0431 463.386 48.2899 466.674C49.8848 469.008 52.0968 468.845 52.968 466.042C53.5503 464.168 52.6189 460.421 52.515 458.416C52.4149 456.493 52.298 454.57 52.209 452.646C51.9804 447.688 51.9985 442.739 52.0667 437.779C52.1251 433.524 53.1493 427.895 52.1835 423.804C51.2831 419.991 45.4701 419.099 45.4701 423.804Z" fill="#69A1AC"/>
<path fill-rule="evenodd" clip-rule="evenodd" d="M139.967 415.532C123.654 415.941 107.304 415.576 91.0056 416.383C82.9676 416.781 74.9611 417.656 66.9634 418.527C63.0341 418.956 59.1071 419.398 55.1847 419.881C54.0011 420.027 44.1656 420.408 47.8649 424.148C49.4802 425.782 54.6205 424.076 56.6545 423.835C60.5926 423.37 64.5386 422.965 68.4822 422.548C75.9866 421.754 83.5003 421.002 91.0367 420.585C108.786 419.601 126.609 419.896 144.375 419.241C149.181 419.064 153.973 418.937 158.781 419.126C160.044 419.176 169.321 419.647 165.293 416.221C163.388 414.6 156.207 415.436 153.827 415.387C149.207 415.292 144.585 415.416 139.967 415.532Z" fill="#69A1AC"/>
<path fill-rule="evenodd" clip-rule="evenodd" d="M165.374 465.138C165.371 465.141 165.369 465.145 165.366 465.149C164.477 466.459 161.193 466.094 159.755 466.192C155.378 466.49 151.082 466.992 146.743 467.642C138.099 468.938 129.53 469.734 120.793 469.95C103.512 470.378 86.1593 469.978 68.9042 471.162C65.0825 471.425 61.3187 471.875 57.5596 472.594C54.8751 473.109 49.7019 474.869 49.388 470.434C49.0092 465.09 62.4175 465.099 66.2513 464.742C82.7127 463.211 99.4448 463.534 115.957 463.764C123.941 463.875 131.911 464.119 139.889 463.631C147.86 463.143 156.101 463.271 164.013 462.414C162.994 458.463 163.143 453.522 162.857 449.485C162.122 439.12 162.319 428.72 161.846 418.344C161.638 413.773 167.865 413.081 169.711 416.781C171.576 420.518 170.364 427.934 170.485 432.078C170.764 441.672 172.543 452.413 170.664 461.902C170.01 465.202 167.227 466.936 165.374 465.138Z" fill="#69A1AC"/>
<path fill-rule="evenodd" clip-rule="evenodd" d="M175.408 421.693C173.204 421.992 171.366 423.879 172.35 426.271C173.589 429.283 177.28 428.106 179.718 427.915C187.468 427.308 195.56 428.521 203.217 427.606C205.308 427.356 208.341 426.217 206.464 423.407C205.053 421.296 199.911 421.666 197.725 421.464C190.25 420.772 182.873 420.957 175.408 421.693Z" fill="#C1DEE2"/>
<path fill-rule="evenodd" clip-rule="evenodd" d="M188.488 434.834C185.483 435.036 178.486 434.877 177.219 438.297C174.947 444.432 183.846 442.27 186.556 441.921C189.704 441.516 197.124 442.601 198.8 439.549C201.796 434.091 191.124 434.652 188.488 434.834Z" fill="#C1DEE2"/>
<path fill-rule="evenodd" clip-rule="evenodd" d="M180.759 448.298C179.333 449.724 179.331 452.271 180.759 453.698C182.507 455.445 186.317 455.082 188.614 455.209C191.818 455.388 201.021 457.083 202.612 453.31C204.759 448.219 196.425 448.326 193.684 448.037C190.516 447.704 183.385 445.671 180.759 448.298Z" fill="#C1DEE2"/>
<path fill-rule="evenodd" clip-rule="evenodd" d="M68.4372 361.159C68.4372 366.632 76.9852 366.632 76.9852 361.159C76.9852 355.715 68.4372 355.632 68.4372 361.159Z" fill="#89C5CC"/>
<path fill-rule="evenodd" clip-rule="evenodd" d="M84.6512 361.221C84.6512 367.478 94.3875 367.465 94.3875 361.221C94.3875 354.986 84.6512 354.922 84.6512 361.221Z" fill="#89C5CC"/>
<path fill-rule="evenodd" clip-rule="evenodd" d="M74.8425 369.54C70.1097 370.847 74.4697 374.858 76.6673 375.774C80.1599 377.23 84.9265 378.304 88.42 376.12C89.81 375.251 90.9385 374.097 89.9199 372.411C88.8345 370.615 87.3485 371.414 85.6961 371.579C83.6028 371.79 81.911 371.757 79.8896 371.086C78.3809 370.585 76.4879 369.087 74.8425 369.54Z" fill="#89C5CC"/>
<path fill-rule="evenodd" clip-rule="evenodd" d="M160.69 361.505C160.69 365.207 166.438 365.207 166.438 361.505C166.438 357.803 160.69 357.803 160.69 361.505Z" fill="#89C5CC"/>
<path fill-rule="evenodd" clip-rule="evenodd" d="M173.402 362.062C173.402 366.175 179.788 366.176 179.788 362.062C179.788 357.949 173.402 357.95 173.402 362.062Z" fill="#89C5CC"/>
<path fill-rule="evenodd" clip-rule="evenodd" d="M172.929 370.988C169.575 371.421 159.873 372.404 159.33 376.539C158.493 382.918 169.123 377.755 171.549 377.254C174.64 376.616 177.399 376.783 180.484 376.907C182.178 376.974 184.431 377.249 184.253 374.669C183.962 370.432 175.861 370.613 172.929 370.988Z" fill="#89C5CC"/>
<path fill-rule="evenodd" clip-rule="evenodd" d="M88.5917 429.815C86.1604 430.463 82.9799 434.666 84.6526 437.239C87.3955 441.458 88.6051 434.98 89.7531 434.356C91.8418 433.222 93.5373 437.368 95.7201 435.193C99.1644 431.761 90.7601 429.234 88.5917 429.815Z" fill="#69A1AC"/>
<path fill-rule="evenodd" clip-rule="evenodd" d="M116.45 426.696C113.567 426.722 107.48 430.805 107.049 433.818C106.793 435.61 107.98 437.33 109.911 437.354C112.54 437.386 113.375 433.968 115.654 433.253C118.112 432.482 117.747 434.258 119.87 435.178C121.424 435.852 123.367 435.57 123.907 433.66C124.925 430.057 119.413 426.639 116.45 426.696Z" fill="#69A1AC"/>
<path fill-rule="evenodd" clip-rule="evenodd" d="M94.3796 443.954C89.7679 446.656 97.3562 452.449 99.9868 453.174C103.958 454.267 111.951 452.226 112.893 447.375C113.267 445.444 112.059 443.695 109.929 444.041C108.174 444.326 107.049 446.527 105.424 447.315C103.23 448.378 101.28 448.306 99.4166 446.705C97.8982 445.4 97.085 442.376 94.3796 443.954Z" fill="#69A1AC"/>
<path fill-rule="evenodd" clip-rule="evenodd" d="M97.7222 483.885C93.6019 484.764 89.4134 484.174 85.2731 485.001C81.0513 485.843 78.5282 487.438 74.6058 485.831C74.4213 485.753 74.2372 485.676 74.0532 485.598C71.0173 484.29 67.8354 483.903 64.6576 485.987C62.7771 487.22 57.0684 491.486 57.7564 494.089C59.2475 499.732 65.6711 490.883 67.3092 490.021C70.4327 488.376 72.5742 490.477 75.79 491.07C79.6418 491.78 82.7412 489.745 86.3696 488.934C90.6133 487.986 95.3873 487.656 99.7047 487.148C101.41 486.948 107.871 488.297 108.454 486.174C109.456 482.528 99.3416 483.542 97.7222 483.885Z" fill="#C1DEE2"/>
<path fill-rule="evenodd" clip-rule="evenodd" d="M127.449 495.25C127.719 495.454 127.503 495.29 127.449 495.25ZM138.989 483.665C142.517 483.307 153.802 480.787 156.12 484.432C157.629 486.806 155.234 495.569 152.949 496.702C151.122 497.607 146.869 496.606 144.865 496.535C141.136 496.404 137.4 496.346 133.675 496.113C132.426 496.035 128.407 496.265 127.428 495.159C126.272 493.854 126.323 486.895 126.051 485.169C129.294 486.219 135.598 484.009 138.989 483.665ZM146.521 480.091C142.004 480.287 137.487 480.627 133.003 481.232C130.504 481.57 127.971 482.468 125.663 482.894C124.919 483.031 123.711 482.65 122.799 483.091C120.132 484.379 122.467 493.089 123.11 495.415C124.098 498.99 126.583 499.569 130.066 499.905C134.653 500.35 139.334 500.21 143.936 500.154C148.371 500.099 154.352 501.082 156.841 496.632C158.45 493.754 160.175 487.053 158.8 483.846C156.991 479.626 150.236 479.935 146.521 480.091Z" fill="#C1DEE2"/>
<path fill-rule="evenodd" clip-rule="evenodd" d="M197.111 497.644C196.869 497.954 196.869 497.954 197.111 497.644ZM198.101 496.45C198.026 496.564 197.679 496.93 198.101 496.45ZM187.327 496.123C189.319 495.748 191.311 495.377 193.304 495.013C191.416 497.656 189.428 496.564 186.203 496.334C186.578 496.263 186.953 496.193 187.327 496.123ZM177.826 495.187C178.331 495.018 178.836 494.85 179.341 494.681C179.325 495.065 179.408 495.425 179.588 495.76C178.724 495.667 177.861 495.566 176.998 495.46C177.274 495.369 177.551 495.278 177.826 495.187ZM173.424 491.936C173.395 491.243 174.438 491.719 175.036 491.672C173.884 492.686 173.346 492.775 173.424 491.936ZM189.169 484.072C189.321 483.878 189.522 483.888 189.772 484.101C189.499 484.193 188.449 484.638 189.169 484.072ZM199.38 482.871C199.407 482.871 199.974 483.636 199.38 482.871ZM199.094 482.62C199.242 482.734 199.242 482.734 199.094 482.62ZM197.819 482.471C199.907 482.824 199.748 485.274 197.819 482.471ZM173.291 482.305C172.866 482.657 173.012 482.315 173.291 482.305ZM181.275 477.088C177.73 477.294 171.224 477.087 168.264 478.975C164.401 481.44 166.434 489.926 166.779 493.646C167.29 499.144 169.877 500.71 175.056 501.287C181.236 501.976 187.585 502.104 193.797 501.941C199.391 501.794 202.577 499.87 203.602 493.98C203.916 492.178 204.712 489.39 204.687 487.663C204.67 486.466 204.073 485.92 203.847 484.902C202.563 479.105 200.414 478.418 194.473 478.165C190.1 477.979 185.566 476.863 181.275 477.088Z" fill="#89C5CC"/>
</g>
<g opacity="0.5">
<path fill-rule="evenodd" clip-rule="evenodd" d="M369.032 343.913C378.044 344.105 388.268 349.093 386.843 359.659C385.799 367.399 379.098 373.683 371.336 374.224C362.994 374.806 354.174 368.404 353.041 359.91C351.766 350.357 360.22 343.722 369.032 343.913ZM364.613 339.612C360.959 340.157 357.468 342.076 354.251 343.794C353.023 344.451 346.798 348.452 351.681 349.446C339.916 368.419 367.603 386.043 383.17 373.712C390.161 368.174 393.841 357.675 389.322 349.457C384.649 340.957 373.566 338.267 364.613 339.612Z" fill="#89C5CC"/>
<path fill-rule="evenodd" clip-rule="evenodd" d="M362.459 355.762C362.459 359.306 367.96 359.306 367.96 355.762C367.96 352.218 362.459 352.218 362.459 355.762Z" fill="#89C5CC"/>
<path fill-rule="evenodd" clip-rule="evenodd" d="M372.657 356.329C372.657 360.171 378.621 360.171 378.621 356.329C378.621 352.488 372.657 352.488 372.657 356.329Z" fill="#89C5CC"/>
<path fill-rule="evenodd" clip-rule="evenodd" d="M365.775 363.927C364.973 366.842 374.123 368.337 374.428 364.964C374.573 363.352 366.333 361.894 365.775 363.927Z" fill="#89C5CC"/>
<path fill-rule="evenodd" clip-rule="evenodd" d="M392.599 362.126C403.129 360.863 413.985 361.446 424.565 361.749C427.213 361.826 429.86 361.9 432.509 361.944C434.192 361.972 437.828 362.78 439.298 361.992C445.315 358.766 433.511 357.205 431.84 357.057C421.316 356.191 405.075 355.882 394.52 356.291C391.398 356.412 390.723 362.351 392.599 362.126Z" fill="#89C5CC"/>
<path fill-rule="evenodd" clip-rule="evenodd" d="M439.98 414.469C440.07 403.437 440.466 392.33 441.314 381.331C441.659 376.847 442.074 372.37 442.417 367.886C442.579 365.775 443.329 362.817 442.088 360.964C440.809 359.055 438.003 358.658 436.312 360.35C434.288 362.97 434.876 367.367 434.624 370.537C434.237 375.41 433.77 380.28 433.537 385.164C433.088 394.616 432.983 404.233 433.743 413.673C434.101 418.127 434.879 422.473 435.914 426.817C436.385 428.795 440.132 437.603 439.345 438.818C438.124 440.702 429.099 439.99 427.141 440.042C422.117 440.177 417.092 440.265 412.067 440.361C407.765 440.443 403.463 440.502 399.16 440.54C397.452 440.555 387.414 440.251 389.641 442.784C364.741 444.519 339.366 441.622 314.618 440.629C313.368 440.578 311.323 440.223 309.435 440.121C309.209 439.21 309.023 438.395 308.977 437.828C308.652 433.851 308.567 429.86 308.214 425.884C307.569 418.609 306.318 411.407 305.574 404.144C304.831 396.889 304.906 389.612 304.473 382.339C304.399 381.093 304.224 370.885 301.648 368.404C302.869 368.867 304.839 368.928 305.973 368.836C315.153 368.096 324.266 366.5 333.368 365.131C335.972 364.74 341.881 365.017 344.041 363.716C345.91 362.589 346.65 358.638 343.398 358.958C334.322 359.93 325.296 361.439 316.292 362.924C313.883 363.321 311.481 363.746 309.079 364.18C307.475 364.47 303.241 364.448 301.997 365.415C300.486 366.589 300.326 367.388 300.838 367.919C300.126 367.723 299.273 368.031 298.248 369.056C296.31 371.578 298.132 377.789 298.363 380.746C298.64 384.293 298.777 387.845 298.938 391.399C299.25 398.275 299.97 405.056 301.076 411.85C302.316 419.46 303.371 427.102 304.614 434.71C304.937 436.691 305.359 438.623 305.898 440.537C302.549 442.249 304.826 444.973 307.481 445.456C307.5 445.46 307.52 445.462 307.539 445.466C308.367 447.485 309.525 449.355 310.429 446.65C310.498 446.442 310.531 446.187 310.539 445.9C317.398 446.676 324.938 446.194 331.691 446.47C346.319 447.068 361.037 447.965 375.68 447.51C381.477 447.33 387.291 446.815 393.039 446.042C396.407 445.589 399.788 445.048 403.102 444.297C403.339 444.243 403.7 444.187 404.117 444.118C404.185 444.116 404.254 444.115 404.318 444.114C409.393 444.037 414.463 443.901 419.533 443.69C423.789 443.513 428.064 443.422 432.306 443.021C434.941 442.772 440.51 442.818 442.127 440.168C443.598 437.759 441.139 431.552 440.79 428.846C440.176 424.08 439.941 419.27 439.98 414.469Z" fill="#C1DEE2"/>
<path fill-rule="evenodd" clip-rule="evenodd" d="M388.556 382.614C384.501 382.961 380.752 384.865 376.66 384.889C373.225 384.908 369.844 383.882 366.39 384.034C362.339 384.21 360.11 386.83 356.562 387.707C353.737 388.404 351.957 386.241 349.472 385.285C346.335 384.077 344.017 384.701 341.328 386.528C339.352 387.87 334.744 390.883 334.78 393.599C334.886 401.825 344.483 390.462 346.417 390.324C348.988 390.141 351.86 393.071 354.595 393.238C358.211 393.46 360.529 391.128 363.859 390.279C367.226 389.42 370.866 390.472 374.242 390.799C378.093 391.171 381.464 390.313 385.19 389.394C388.801 388.503 391.878 388.55 395.547 389.298C398.023 389.803 404.192 392.739 405.276 388.964C406.751 383.823 391.39 382.373 388.556 382.614Z" fill="#89C5CC"/>
<path fill-rule="evenodd" clip-rule="evenodd" d="M389.79 398.302C381.482 399.109 373.123 399.816 364.777 400.042C361.162 400.141 347.266 398.591 348.498 403.185C349.555 407.123 368.465 404.643 372.317 404.343C376.569 404.013 380.814 403.551 385.046 403.016C386.545 402.826 390.166 403.022 391.224 401.765C392.233 400.565 391.736 398.108 389.79 398.302Z" fill="#89C5CC"/>
<path fill-rule="evenodd" clip-rule="evenodd" d="M332.475 419.221C332.286 419.301 332.286 419.301 332.475 419.221ZM334.228 419.197C336.299 419.132 335.855 418.04 337.921 418.609C338.874 418.871 338.972 418.482 339.711 419.393C341.152 421.17 339.795 425.039 338.374 426.471C333.113 431.773 326.799 419.433 334.228 419.197ZM334.228 413.995C319.825 414.479 325.851 436.728 338.387 432.186C343.564 430.311 346.818 421.861 343.773 417.112C342.292 414.802 340.403 414.391 337.921 414.231C337.345 414.194 336.62 415.031 336.261 414.993C335.406 414.903 335.486 413.948 334.228 413.995Z" fill="#89C5CC"/>
<path fill-rule="evenodd" clip-rule="evenodd" d="M368.671 419.983C368.414 419.904 373.219 421.301 372.693 420.754C373.815 421.921 372.306 424.68 371.037 425.161C367.964 426.328 366.24 421.549 368.671 419.983ZM370.803 413.95C366.293 414.589 362.813 416.468 362.196 421.482C361.628 426.111 364.755 430.799 369.689 430.889C380.442 431.086 380.769 412.56 370.803 413.95Z" fill="#89C5CC"/>
<path fill-rule="evenodd" clip-rule="evenodd" d="M419.892 420.186C420.522 428.406 411.999 420.882 419.892 420.186ZM416.235 411.392C415.489 412.666 416.125 414.018 417.25 414.759C407.196 416.884 409.473 432.013 419.704 429.778C424.907 428.641 425.863 423.171 425.088 418.653C424.719 416.505 419.366 406.038 416.235 411.392Z" fill="#89C5CC"/>
</g>
<path opacity="0.5" fill-rule="evenodd" clip-rule="evenodd" d="M440.021 419.286C437.024 419.819 429.939 423.129 430 426.684C430.096 432.234 436.118 426.172 437.458 425.357C444.653 420.978 453.973 426.652 461.466 427.86C464.901 428.413 471.621 429.436 474.655 427.134C480.051 423.04 467.572 424.065 465.982 423.9C457.344 423.008 448.75 417.727 440.021 419.286Z" fill="#C1DEE2"/>
<g opacity="0.5">
<path fill-rule="evenodd" clip-rule="evenodd" d="M581.586 380.268C581.583 385.946 581.296 391.742 582.343 397.352C582.66 399.051 582.909 402.304 584.701 403.185C586.501 404.07 588.246 403.076 588.693 401.231C589.215 399.085 588.071 395.872 587.955 393.619C587.796 390.54 587.785 387.458 587.784 384.376C587.783 382.15 588.515 378.569 585.887 377.424C583.934 376.572 581.586 378.156 581.586 380.268Z" fill="#C1DEE2"/>
<path fill-rule="evenodd" clip-rule="evenodd" d="M671.353 371.287C652.541 373.176 633.457 373.568 614.576 374.553C605.849 375.008 595.301 374.427 587.079 377.805C585.552 378.433 580.084 381.925 584.523 383.347C585.907 383.79 587.313 382.299 588.449 381.8C590.341 380.969 592.532 380.712 594.55 380.387C611.706 377.632 629.651 378.112 646.984 376.824C651.425 376.494 655.868 376.155 660.301 375.719C663.467 375.407 670.122 373.125 673.044 374.292C678.038 376.287 677.921 389.247 678.019 393.704C678.071 396.009 675.833 404.283 680.281 403.444C683.84 402.773 682.551 394.177 682.274 391.826C681.546 385.662 680.304 370.38 671.353 371.287Z" fill="#C1DEE2"/>
<path fill-rule="evenodd" clip-rule="evenodd" d="M678.291 403.146C661.95 404.621 645.233 403.173 628.824 403.754C620.224 404.058 611.632 404.543 603.03 404.827C599.31 404.95 595.586 404.955 591.864 404.982C590.084 404.994 581.983 406.073 586.994 409.602C589.213 411.165 596.285 409.906 598.831 409.876C602.656 409.831 606.478 409.672 610.3 409.522C619.152 409.176 627.999 408.696 636.856 408.457C645.328 408.227 653.805 408.178 662.277 407.949C666.492 407.834 670.765 407.705 674.943 407.09C675.886 406.951 678.948 406.84 679.603 405.789C680.222 404.795 679.787 403.001 678.291 403.146Z" fill="#89C5CC"/>
<path fill-rule="evenodd" clip-rule="evenodd" d="M597.979 390.877C597.891 391.085 597.891 391.085 597.979 390.877ZM605.055 388.726C605.313 388.835 605.313 388.835 605.055 388.726ZM604.724 388.666C608.537 392.553 602.673 397.193 599.1 393.4C595.309 389.373 602.269 388.679 604.724 388.666ZM600.679 382.786C587.544 385.123 592.194 402.629 604.463 400.099C609.849 398.989 612.929 393.563 611.075 388.351C610.351 386.314 608.772 384.079 606.574 383.438C605.477 383.118 604.508 383.621 603.464 383.503C602.468 383.391 601.915 382.563 600.679 382.786Z" fill="#C1DEE2"/>
<path fill-rule="evenodd" clip-rule="evenodd" d="M650.95 387.713C643.029 387.738 635.107 388.074 627.187 388.225C624.758 388.27 618.514 387.183 618.505 391.013C618.494 395.105 625.449 393.594 627.763 393.539C635.619 393.351 643.495 393.007 651.319 392.259C653.295 392.07 660.138 392.396 660.131 389.708C660.123 386.86 652.546 387.713 650.95 387.713Z" fill="#C1DEE2"/>
<path fill-rule="evenodd" clip-rule="evenodd" d="M669.869 414.421C650.279 414.947 630.718 415.13 611.143 416.133C603.822 416.508 596.51 416.787 589.178 416.787C587.766 416.787 584.922 416.24 583.593 417.129C579.986 419.541 584.093 421.612 586.444 421.742C602.525 422.634 618.838 420.413 634.909 419.912C644.317 419.619 653.728 419.532 663.131 419.053C665.696 418.923 668.262 418.771 670.823 418.572C672.296 418.458 676.191 418.771 677.381 417.909C682.579 414.147 671.621 414.374 669.869 414.421Z" fill="#89C5CC"/>
<path fill-rule="evenodd" clip-rule="evenodd" d="M579.986 424C579.801 429.079 579.782 434.07 580.447 439.121C580.708 441.108 580.828 443.364 583.158 443.869C585.274 444.327 586.347 442.727 586.785 440.953C587.855 436.62 586.914 430.384 586.901 425.882C586.895 423.657 586.893 421.166 584.143 420.663C582.045 420.279 580.066 421.795 579.986 424Z" fill="#89C5CC"/>
<path fill-rule="evenodd" clip-rule="evenodd" d="M690.634 436.245C658.922 437.916 627.252 439.375 595.518 440.716C593.043 440.821 573.817 440.612 580.538 447.316C582.614 449.387 587.963 447.984 590.648 447.853C594.682 447.655 598.719 447.503 602.754 447.298C618.75 446.483 634.788 446.264 650.773 445.35C659.57 444.847 668.346 444.06 677.097 443.036C681.259 442.549 686.426 442.599 690.324 440.968C692.33 440.129 694.494 436.04 690.634 436.245Z" fill="#89C5CC"/>
<path fill-rule="evenodd" clip-rule="evenodd" d="M672.4 410.48C669.988 412.881 671.228 417.62 671.41 420.589C671.66 424.674 671.964 428.762 672.474 432.825C672.806 435.464 672.63 439.571 674.038 441.851C675.687 444.521 679.317 444.225 680.808 441.646C682.127 439.365 681.459 434.566 681.425 432.038C681.378 428.542 681.16 425.041 680.953 421.552C680.779 418.637 681.44 413.964 679.836 411.469C678.206 408.933 674.66 408.232 672.4 410.48Z" fill="#89C5CC"/>
<path fill-rule="evenodd" clip-rule="evenodd" d="M599.917 429.119C599.634 429.337 599.634 429.337 599.917 429.119ZM605.549 428.413C610.805 429.47 602.307 435.606 599.621 431.395C599.202 430.737 598.983 429.928 599.657 429.356C600.271 428.834 600.658 429.758 601.238 429.51C602.238 429.082 604.482 428.373 605.549 428.413ZM604.824 423.375C601.236 423.659 596.303 423.881 594.527 427.478C592.141 432.309 596.221 437.04 600.942 437.775C605.485 438.483 612.267 435.967 612.631 430.669C612.924 426.397 608.861 423.048 604.824 423.375Z" fill="#89C5CC"/>
<path fill-rule="evenodd" clip-rule="evenodd" d="M634.781 425.93C631.066 425.99 623.765 424.892 620.529 426.702C617.327 428.494 618.755 431.684 621.676 432.447C623.607 432.951 626.763 432.138 628.773 432.056C631.418 431.948 634.064 431.925 636.711 431.888C641.161 431.829 645.609 431.879 650.06 431.879C654.605 431.879 659.229 432.003 663.766 431.669C669.508 431.247 669.353 426.947 663.738 426.41C654.2 425.497 644.35 425.78 634.781 425.93Z" fill="#89C5CC"/>
<path fill-rule="evenodd" clip-rule="evenodd" d="M625.293 474.08C625.293 476.122 627.105 474.08 627.092 474.08C627.105 474.08 625.293 472.037 625.293 474.08Z" fill="#89C5CC"/>
<path fill-rule="evenodd" clip-rule="evenodd" d="M584.297 457.637C584.414 463.574 584.491 469.517 584.744 475.45C584.825 477.326 584.287 480.989 586.561 481.945C589.092 483.01 589.879 480.356 590.171 478.558C591.094 472.862 590.189 466.358 590.1 460.594C590.07 458.659 590.489 455.965 588.291 455C586.498 454.212 584.261 455.674 584.297 457.637Z" fill="#89C5CC"/>
<path fill-rule="evenodd" clip-rule="evenodd" d="M681.935 457.73C682.085 458.084 682.085 458.084 681.935 457.73ZM682.147 457.67C682.269 457.72 682.76 457.927 682.147 457.67ZM634.183 452.871C625.069 453.014 615.948 453.122 606.839 453.512C602.952 453.679 599.019 453.813 595.145 454.18C592.401 454.44 585.584 454.547 583.805 456.79C580.132 461.419 587.92 460.156 589.598 459.78C592.651 459.096 595.767 458.877 598.886 458.712C605.653 458.355 612.423 458.164 619.199 458.028C637.574 457.658 655.962 457.714 674.34 457.632C676.119 457.624 679.335 456.908 680.978 457.628C682.625 458.349 682.531 460.123 682.703 462.182C682.93 464.922 681.123 470.143 682.5 472.448C684.636 476.023 687.742 472.987 688.217 470.381C688.873 466.78 687.833 462.456 686.815 459.013C685.379 454.157 683.385 453.964 678.688 453.584C673.199 453.141 667.731 452.872 662.224 452.821C652.879 452.735 643.528 452.726 634.183 452.871Z" fill="#89C5CC"/>
<path fill-rule="evenodd" clip-rule="evenodd" d="M670.234 477.414C650.464 479.71 630.132 478.357 610.257 478.438C605.424 478.458 600.587 478.497 595.758 478.731C593.208 478.854 587.163 478.151 585.415 480.119C581.732 484.266 588.367 484.869 590.789 484.698C595.686 484.35 600.594 484.191 605.504 484.153C622.796 484.019 640.187 484.826 657.465 483.973C664.704 483.615 671.781 482.377 678.886 480.993C680.46 480.687 691.235 478.638 685.091 476.183C681.46 474.732 674.048 476.969 670.234 477.414Z" fill="#89C5CC"/>
<path fill-rule="evenodd" clip-rule="evenodd" d="M612.512 469.822C612.374 469.999 612.374 469.999 612.512 469.822ZM612.38 469.791C612.333 469.918 612.187 470.232 612.38 469.791ZM611.133 468.183C611.161 468.22 611.279 468.371 611.133 468.183ZM611.085 468.171C611.561 468.739 611.881 469.373 612.046 470.072C607.95 471.182 606.371 467.868 611.085 468.171ZM610.825 468.016C610.827 468.017 611.403 468.259 610.825 468.016ZM604.097 463.079C601.446 466.38 599.257 470.228 602.562 473.998C605.518 477.37 611.463 477.805 615.214 475.554C619.077 473.235 618.744 468.352 616.048 465.165C614.313 463.113 612.907 463.17 610.389 462.835C608.675 462.607 605.551 461.274 604.097 463.079Z" fill="#89C5CC"/>
<path fill-rule="evenodd" clip-rule="evenodd" d="M631.5 469.189C631.5 473.585 650.481 471.693 653.858 471.688C656.687 471.684 673.79 473.244 672.563 468.72C671.554 465.003 654.707 466.851 651.119 466.845C648.018 466.841 631.5 464.712 631.5 469.189Z" fill="#89C5CC"/>
</g>
<g opacity="0.5">
<path fill-rule="evenodd" clip-rule="evenodd" d="M383.7 510.376C393.206 511.756 403.094 516.227 403.011 527.292C402.941 536.595 395.138 546.496 385.119 545.94C376.102 545.441 367.612 535.58 366.483 527.13C365.898 522.752 366.993 518.039 369.568 514.437C372.942 509.719 378.296 509.726 383.7 510.376ZM379.209 504.362C372.334 504.399 367.304 506.886 363.049 512.136C361.523 514.018 359.748 516.044 358.586 518.177C357.501 520.169 357.691 525.234 361.415 522.859C360.498 532.665 366.229 542.182 374.467 547.206C383.422 552.669 393.544 551.604 400.997 543.948C407.819 536.94 410.22 525.103 405.229 516.436C400.241 507.774 388.683 504.269 379.209 504.362Z" fill="#89C5CC"/>
<path fill-rule="evenodd" clip-rule="evenodd" d="M399.826 501.734C395.424 504.96 391.405 509.208 388.067 513.517C384.804 517.728 382.647 522.987 378.727 526.66C376.748 524.504 374.429 518.681 370.48 520.991C367.203 522.908 369.313 526.205 370.909 528.369C375.03 533.958 379.606 536.208 384.891 530.685C389.691 525.67 392.417 518.98 396.905 513.677C398.873 511.349 401.915 509.04 403.482 506.47C404.903 504.141 403.146 499.294 399.826 501.734Z" fill="#89C5CC"/>
</g>
<g opacity="0.5">
<path fill-rule="evenodd" clip-rule="evenodd" d="M520.825 181.023C520.974 181 521.118 180.984 521.257 180.975C524.927 180.742 528.646 180.839 532.324 180.753C539.854 180.579 547.681 180.99 555.167 180.109C556.689 179.911 557.221 181.863 556.538 182.875C555.772 184.011 553.32 183.953 552.185 184.121C548.862 184.613 545.495 184.785 542.142 184.934C538.621 185.09 535.096 185.206 531.573 185.304C528.521 185.389 521.748 186.665 518.925 185.388C516.724 184.392 516.776 183.287 517.674 182.43C517.129 181.234 517.219 179.274 517.102 178.333C516.614 174.392 516.319 170.501 516.312 166.526C516.298 158.74 516.314 150.653 518.468 143.116C517.605 142.738 517.085 142.181 517.087 141.379C517.099 136.612 534.585 137.75 538.131 137.656C542.489 137.542 546.848 137.527 551.207 137.551C554.088 137.566 557.983 136.944 560.852 137.611C566.437 138.907 566.083 148.482 566.198 153.112C566.403 161.416 566.284 170.146 565.609 178.431C565.376 181.292 563.295 184.917 560.921 180.974C559.598 178.776 560.188 173.639 560.186 171.21C560.179 162.575 561.533 153.678 560.238 145.086C559.814 142.27 559.908 142.08 557.042 142.139C554.769 142.186 552.496 142.261 550.224 142.309C545.595 142.406 540.964 142.47 536.338 142.639C534.581 142.704 528.266 143.807 523.342 143.803C523.344 143.842 523.348 143.882 523.349 143.922C523.417 147.251 521.785 151.292 521.563 154.795C521.029 163.22 521.666 171.843 520.877 180.225C520.853 180.479 520.84 180.75 520.825 181.023Z" fill="#89C5CC"/>
<path fill-rule="evenodd" clip-rule="evenodd" d="M587.12 183.458C586.547 182.874 586.032 182.016 585.701 180.945C584.513 177.101 584.401 172.954 584.313 168.968C584.125 160.449 584.218 151.916 584.167 143.394C583.394 142.356 583.853 141.169 584.817 140.341C587.422 138.105 594.928 138.672 598.235 138.497C602.994 138.245 607.756 138.188 612.521 138.17C617.566 138.145 622.618 138.235 627.661 138.39C629.532 138.448 642.541 138.775 636.726 141.929C636.394 142.11 636.019 142.26 635.61 142.386C635.852 143.819 635.881 145.298 635.842 146.011C635.595 150.546 635.489 155.09 635.287 159.628C635.063 164.692 634.849 169.757 634.675 174.824C634.582 177.502 635.499 183.731 633.379 185.665C631.95 186.968 630.974 186.707 630.316 185.822C625.243 187.295 613.537 186.345 611.405 186.346C607.584 186.348 586.836 188.804 586.802 184.384C586.799 184.041 586.91 183.734 587.12 183.458ZM590.491 181.895C596.279 180.659 607.071 181.485 609.342 181.477C613.571 181.46 617.801 181.519 622.027 181.688C623.345 181.74 626.566 181.487 629.111 181.769C629.088 181.538 629.073 181.328 629.064 181.146C628.833 176.585 629.084 171.976 629.231 167.415C629.379 162.818 629.606 158.224 629.783 153.628C629.874 151.264 629.277 146.329 629.924 142.926C626.852 142.868 623.63 142.497 621.558 142.496C616.694 142.496 611.833 142.441 606.969 142.537C601.716 142.641 596.407 142.703 591.191 143.396C590.905 143.434 590.562 143.507 590.181 143.596C590.976 146.918 590.012 152.259 590.008 155.336C589.999 163.959 590.316 172.534 590.509 181.111C590.516 181.392 590.509 181.653 590.491 181.895Z" fill="#89C5CC"/>
<path fill-rule="evenodd" clip-rule="evenodd" d="M538.284 185.123C535.157 186.95 536.843 194.259 537.927 196.786C539.708 200.943 543.322 204.195 547.222 206.352C555.104 210.712 566.466 209.554 572.427 217.114C572.489 217.192 574.549 219.232 575.018 216.59C575.403 214.422 571.557 211.111 570.066 210.025C565.827 206.934 560.391 205.938 555.488 204.394C550.259 202.748 544.521 199.713 542.328 194.322C541.552 192.413 543.032 182.336 538.284 185.123Z" fill="#C1DEE2"/>
<path fill-rule="evenodd" clip-rule="evenodd" d="M609.78 188.637C606.913 189.427 608.809 193.371 608.804 195.345C608.799 197.809 608.011 200.387 606.493 202.353C602.643 207.338 595.104 208.085 589.452 209.515C585.348 210.553 575.529 212.78 575.145 218.331C574.716 224.529 583.384 216.986 584.117 216.677C592.219 213.705 602.701 213.131 608.955 206.589C611.537 203.888 613.062 200.284 613.305 196.564C613.441 194.469 613.465 187.63 609.78 188.637Z" fill="#C1DEE2"/>
<path fill-rule="evenodd" clip-rule="evenodd" d="M571.394 222.601C583.322 219.458 594.434 227.816 595.84 239.84C597.324 252.529 587.761 262.744 575.149 263.304C564.055 263.796 550.632 255.853 550.561 243.616C550.494 232.148 561.469 225.211 571.394 222.601ZM577.135 231.154C575.094 232.343 574.72 229.258 573.276 228.851C571.826 228.443 569.496 229.968 568.288 230.857C566.237 232.367 560.556 241.158 557.802 236.384C549.446 250.813 570.278 261.612 582.124 256.151C595.134 250.154 592.602 228.229 577.207 228.115C577.852 228.992 578.435 230.392 577.135 231.154Z" fill="#89C5CC"/>
<path fill-rule="evenodd" clip-rule="evenodd" d="M566.289 239.777C566.289 242.409 570.446 242.409 570.446 239.777C570.446 237.174 566.289 237.063 566.289 239.777Z" fill="#89C5CC"/>
<path fill-rule="evenodd" clip-rule="evenodd" d="M573.603 239.283C573.603 242.507 578.697 242.507 578.697 239.283C578.697 236.095 573.603 235.959 573.603 239.283Z" fill="#89C5CC"/>
<path fill-rule="evenodd" clip-rule="evenodd" d="M568.369 246.796C564.203 249.247 576.117 254.115 576.587 249.14C576.79 246.993 574.711 247.572 573.325 247.414C571.999 247.263 569.627 246.064 568.369 246.796Z" fill="#89C5CC"/>
<path fill-rule="evenodd" clip-rule="evenodd" d="M566.562 264.181C566.743 270.44 566.656 276.695 567.843 282.867C568.069 284.039 568.225 288.291 569.152 289.162C571.431 291.304 571.468 287.198 571.557 285.625C571.873 279.99 571.281 274.179 571.151 268.532C571.122 267.316 571.445 264.799 570.871 263.622C569.961 261.754 566.473 261.2 566.562 264.181Z" fill="#C1DEE2"/>
<path fill-rule="evenodd" clip-rule="evenodd" d="M562.106 259.106C552.973 269.357 540.396 268.602 527.726 269.5C521.032 269.974 514.263 270.948 508.876 275.278C506.37 277.293 504.21 279.816 502.758 282.691C502.124 283.948 499.114 291.201 503.634 289.481C505.237 288.87 506.816 284.074 507.852 282.655C509.827 279.953 512.354 277.722 515.385 276.272C521.232 273.475 528.214 273.523 534.554 273.168C541.181 272.797 548.294 272.45 554.386 269.568C557.252 268.213 559.94 266.522 562.247 264.343C563.071 263.564 564.838 262.241 564.969 261.05C565.12 259.689 563.812 257.197 562.106 259.106Z" fill="#C1DEE2"/>
<path fill-rule="evenodd" clip-rule="evenodd" d="M516 290.569C507.421 290.856 498.852 291.203 490.285 291.746C488.53 291.857 482.676 291.502 484.167 295.1C485.362 297.983 492.501 296.076 494.862 295.936C503.789 295.406 512.753 295.222 521.662 294.419C523.663 294.239 532.709 294.31 528.973 290.764C527.196 289.076 518.455 290.486 516 290.569Z" fill="#89C5CC"/>
<path fill-rule="evenodd" clip-rule="evenodd" d="M478.72 294.707C476.015 298.259 477.258 306.891 477.462 311.161C477.66 315.298 476.856 322.863 482.257 323.505C480.542 323.28 483.559 323.609 484.05 323.635C485.147 323.694 486.248 323.713 487.346 323.725C489.883 323.753 492.421 323.719 494.957 323.668C500.702 323.553 506.462 323.386 512.2 323.069C514.612 322.935 527.696 323.047 528.214 320.541C528.876 317.339 516.331 319.151 514.085 319.253C508.616 319.504 503.138 319.557 497.664 319.628C494.951 319.664 492.235 319.691 489.522 319.638C488.401 319.616 483.965 320.076 483.284 319.328C482.703 318.692 483.156 312.842 483.144 311.947C483.104 309.03 483.107 306.106 483.211 303.191C483.281 301.228 484.342 297.493 483.478 295.649C482.636 293.856 480.185 293.244 478.72 294.707Z" fill="#89C5CC"/>
<path fill-rule="evenodd" clip-rule="evenodd" d="M522.895 294.873C523.052 301.371 523.1 307.999 524.635 314.354C525.146 316.468 525.861 320.829 527.986 321.924C530.215 323.073 532.141 321.433 532.286 319.223C532.47 316.446 530.983 312.799 530.678 309.949C530.321 306.624 530.114 303.296 529.992 299.954C529.9 297.441 530.664 293.673 528.268 292.053C526.116 290.597 522.825 292.063 522.895 294.873Z" fill="#89C5CC"/>
<path fill-rule="evenodd" clip-rule="evenodd" d="M539.968 293.287C537.3 295.945 538.492 304.36 538.826 307.775C539.07 310.276 541.808 322.581 545.91 316.164C547.725 313.326 545.419 305.821 545.436 302.511C545.446 300.403 546.192 297.738 545.832 295.713C545.356 293.037 542.388 290.87 539.968 293.287Z" fill="#89C5CC"/>
<path fill-rule="evenodd" clip-rule="evenodd" d="M602.732 315.249C603.32 315.885 603.58 316.792 603.198 317.678C602.281 319.807 598.905 319.348 597.072 319.501C590.953 320.011 584.806 320.351 578.666 320.405C572.733 320.457 566.798 320.305 560.866 320.363C555.923 320.412 550.775 321.413 545.878 321.212C543.834 321.128 541.651 320.459 542.169 317.817C542.629 315.473 544.987 315.454 546.91 315.258C552.703 314.669 558.498 314.46 564.32 314.481C576.551 314.523 588.773 314.46 601.003 314.396C601.506 314.437 601.979 314.63 602.369 314.922C601.73 314.146 602.037 312.996 601.918 311.874C601.596 308.848 601.389 305.874 600.815 302.848C600.356 300.429 600.01 296.318 597.769 294.796C595.321 293.134 589.886 293.684 586.964 293.608C579.103 293.405 571.197 293.964 563.371 294.675C559.802 295 556.189 295.247 552.661 295.887C550.696 296.245 544.932 299.129 543.362 297.354C539.584 293.081 556.188 291.326 558.443 291.093C566.457 290.266 574.481 289.646 582.54 289.569C587.982 289.527 597.295 289.063 601.296 293.528C603.699 296.209 604.542 300.625 605.479 303.97C606.2 306.54 608.153 311.173 606.765 313.826C606.137 315.027 605.126 316.051 603.591 315.626C603.233 315.526 602.952 315.399 602.732 315.249Z" fill="#89C5CC"/>
<path fill-rule="evenodd" clip-rule="evenodd" d="M643.707 281.363C644.056 281.811 644.056 281.811 643.707 281.363ZM589.473 254.887C584.605 257.748 593.614 266.143 595.909 267.441C601.073 270.363 608.17 270.804 613.936 271.625C621.234 272.666 629.176 273.049 636.19 275.44C639.179 276.46 641.077 278.049 643.034 280.493C644.025 281.732 646.413 287.069 648.587 285.805C652.964 283.261 641.169 272.583 638.57 271.435C632.662 268.825 625.678 268.094 619.361 267.081C613.487 266.138 607.486 265.437 601.757 263.775C598.607 262.862 596.368 261.388 594.552 258.567C593.42 256.809 592.492 253.121 589.473 254.887Z" fill="#C1DEE2"/>
<path fill-rule="evenodd" clip-rule="evenodd" d="M615.586 316.696C614.13 313.905 613.461 308.544 613.331 307.485C612.771 302.923 612.729 298.414 612.806 293.824C612.851 291.304 615.736 290.102 617.605 291.516C620.104 290.47 624.333 290.312 626.606 290.083C630.341 289.706 634.107 289.565 637.853 289.341C646.596 288.819 655.331 287.876 664.091 287.681C666.712 287.627 670.223 287.39 672.32 289.325C674.706 291.528 675.182 296.994 675.897 299.939C676.674 303.137 677.602 306.391 677.927 309.671C678.003 310.44 678.208 311.76 678.116 312.947C679.207 313.096 679.859 314.154 679.749 315.31C679.544 317.455 676.572 317.748 674.833 318.087C669.05 319.217 662.869 318.96 657.006 319.125C644.741 319.471 631.625 321.452 619.406 320.272C617.315 320.07 615.068 319.332 615.586 316.696ZM620.001 314.172C620.487 314.168 620.967 314.177 621.414 314.169C627.583 314.061 633.747 313.874 639.912 313.637C646.199 313.396 652.486 313.127 658.778 313.054C663.779 312.997 668.929 313.429 673.966 313.235C672.883 310.4 673.047 305.937 672.47 303.002C671.896 300.087 671.679 296.63 670.506 293.893C669.187 290.813 668.04 291.526 664.606 291.759C661.073 291.999 657.546 292.336 654.018 292.626C646.261 293.264 638.499 293.667 630.737 294.208C626.711 294.488 622.859 295.637 618.922 296.088C618.862 297.493 618.664 298.912 618.687 299.937C618.753 302.962 619.051 305.966 619.313 308.978C619.42 310.203 619.926 312.318 620.001 314.172Z" fill="#89C5CC"/>
</g>
<path fill-rule="evenodd" clip-rule="evenodd" d="M212.762 266.29C216.209 278.992 220.701 307.544 216.117 312.022H187.117C187.114 311.971 187.111 311.92 187.109 311.868C176.36 310.679 168 301.566 168 290.5V269.5C168 257.626 177.626 248 189.5 248H191.5C202.283 248 211.212 255.939 212.762 266.29Z" fill="#191847"/>
<path fill-rule="evenodd" clip-rule="evenodd" d="M179.262 286.49C174.654 281.081 171.536 274.453 172.057 267.025C173.558 245.625 203.349 250.333 209.143 261.134C214.938 271.935 214.25 299.333 206.76 301.263C203.774 302.033 197.411 300.147 190.935 296.244L195 325H171L179.262 286.49Z" fill="#D4A181"/>
<path fill-rule="evenodd" clip-rule="evenodd" d="M185.75 282.875C186.856 294.753 186.413 308.317 183.117 311.537H154.117C152.501 283.463 168.117 294.335 168.117 267.903C169.091 266.952 170.011 266.01 170.921 265.198L170.889 264.421C175.911 254.14 182.281 249 190.001 249C201.581 249 205.237 254.388 208.349 258.963C206.022 266.948 196.99 268.132 188.966 273.11C188.02 272.341 186.814 271.88 185.5 271.88C182.462 271.88 180 274.343 180 277.38C180 280.418 182.462 282.88 185.5 282.88C185.584 282.88 185.667 282.879 185.75 282.875Z" fill="#191847"/>
<path fill-rule="evenodd" clip-rule="evenodd" d="M132.408 506.088C156.397 512.798 177.094 516.153 194.5 516.153C211.905 516.153 228.072 510.986 243 500.653C219.524 493.766 200.191 490.323 185 490.323C169.809 490.323 152.278 495.578 132.408 506.088Z" fill="#1F28CF"/>
<path fill-rule="evenodd" clip-rule="evenodd" d="M215.267 525.824C215.036 525.477 214.84 525.098 214.685 524.689C211.479 516.208 160.117 424.726 155 408H212.826C216.717 420.717 234.227 500.52 236.691 516.442C244.467 541.557 260.475 622.895 262.519 628.53C264.669 634.458 252.572 640.633 249.349 633.346C244.22 621.75 231.999 589.665 226.557 570.074C221.456 551.708 217.302 535.184 215.267 525.824Z" fill="#BA8B72"/>
<path fill-rule="evenodd" clip-rule="evenodd" d="M167.957 536.994C144.475 542.928 58.584 553.658 52.6898 555.341C46.6265 557.072 41.3101 544.574 48.8047 541.867C60.7299 537.559 93.5891 527.606 113.512 523.544C129.536 520.277 144.159 517.611 153.976 516.05C153.145 488.473 149.343 422.294 151.835 408H203C200.61 421.707 180.41 521.718 176.656 531.729C175.464 535.302 171.909 536.882 167.957 536.994Z" fill="#D4A181"/>
<path fill-rule="evenodd" clip-rule="evenodd" d="M49.3489 538.539C46.2135 537.956 43.9158 537.793 42.4556 538.05C40.6797 538.363 38.1404 539.116 34.8377 540.309C35.201 542.369 38.4657 560.884 44.6318 595.854C49.6582 596.456 52.0875 595.168 51.9196 591.991C51.7517 588.814 51.6398 586.17 51.5837 584.059L58.5407 556.213C58.6746 555.677 58.3487 555.134 57.8129 555C57.8038 554.998 57.7946 554.996 57.7853 554.994L53.4672 554.044C51.6164 551.402 50.5322 549.181 50.2149 547.381C49.957 545.919 50.1915 543.795 50.9184 541.01L50.9184 541.01C51.1973 539.941 50.5571 538.849 49.4883 538.57C49.4422 538.558 49.3957 538.548 49.3489 538.539Z" fill="#E4E4E4"/>
<path fill-rule="evenodd" clip-rule="evenodd" d="M245.678 632.402C244.559 635.388 244 637.623 244 639.106C244 640.909 244.3 643.54 244.901 647C246.993 647 265.794 647 301.303 647C302.769 642.154 301.923 639.539 298.765 639.152C295.607 638.766 292.984 638.417 290.895 638.106L264.68 626.419C264.176 626.194 263.584 626.421 263.359 626.925C263.356 626.934 263.352 626.942 263.348 626.951L261.663 631.039C258.74 632.403 256.364 633.085 254.537 633.085C253.052 633.085 251.001 632.485 248.384 631.285L248.384 631.285C247.38 630.825 246.193 631.266 245.733 632.27C245.713 632.313 245.695 632.357 245.678 632.402Z" fill="#E4E4E4"/>
<path fill-rule="evenodd" clip-rule="evenodd" d="M152 408C174.547 401.549 195.88 401.549 216 408C223 439.937 240.009 452.613 243 501.579C209 518.473 167 489.53 132 506.005C122 482.961 136 427.465 152 408Z" fill="#2B44FF"/>
<path fill-rule="evenodd" clip-rule="evenodd" d="M249 368.311L288.483 362.925C296.381 358.532 303.647 355.558 310.281 354.003C312.148 353.948 315.117 354.627 310.693 358.315C306.269 362.003 301.78 366.083 302.569 368.051C303.357 370.02 307.471 369.287 308.153 372.315C308.607 374.333 301.93 374.661 288.121 373.299L256.084 386L249 368.311ZM124.97 377.45L146.867 377.532C122.856 431.566 110.336 459.857 109.308 462.406C106.994 468.14 111.891 476.874 113.985 481.567C107.165 484.619 107.891 473.317 99.2879 477.319C91.4352 480.973 85.4617 487.592 76.389 481.994C75.2736 481.306 74.0513 478.715 77.0046 476.69C84.3623 471.645 94.9653 462.815 96.3979 459.908C98.3516 455.945 107.876 428.459 124.97 377.45Z" fill="#D4A181"/>
<path fill-rule="evenodd" clip-rule="evenodd" d="M184.949 308L202.094 309.142C206.317 347.343 229.316 371.473 280.811 363.304L287.652 412.499C239.523 418.719 197.313 399.45 188.662 347.278C186.423 333.773 184.655 319.718 184.949 308Z" fill="#AFB9C5"/>
<path fill-rule="evenodd" clip-rule="evenodd" d="M176.491 303.016L202.468 308.965C202.468 353.644 216.7 382.15 224 415H153.844C152.855 426.351 152.248 438.018 151.932 450H99.4016C111.305 386.664 136.43 337.664 174.776 303H176.477L176.491 303.016Z" fill="#C5CFD6"/>
<path fill-rule="evenodd" clip-rule="evenodd" d="M164.912 351.259C163.104 379.101 164.168 400.347 168.102 415H153.844C155.801 392.514 159.256 371.267 164.912 351.259V351.259Z" fill="black" fill-opacity="0.1"/>
<path fill-rule="evenodd" clip-rule="evenodd" d="M580.918 274.04C587.02 269.835 591.951 264 593.431 256.377C597.695 234.414 566.415 231.115 557.662 240.432C548.909 249.748 542.207 277.534 549.23 281.5C552.031 283.082 558.95 282.899 566.527 280.715L554.67 308.586L578.847 315.064L580.918 274.04Z" fill="#915B3C"/>
<path fill-rule="evenodd" clip-rule="evenodd" d="M554.07 244.706C554.688 243.359 555.692 241.95 556.522 240.742C557.592 239.185 558.929 237.881 560.335 236.691C562.981 234.451 565.937 232.58 569.018 231.195C574.646 228.665 581.107 228.067 586.7 230.322C589.523 231.46 592.059 233.333 593.974 235.833C595.704 238.091 597.14 241.117 599.914 242.051C602.932 243.066 606.473 241.11 609.384 240.096C612.665 238.953 615.987 238.37 619.375 238.705C625.05 239.266 629.665 242.471 632.216 247.935C634.931 253.748 635.964 261.484 631.661 267.071C630.861 268.11 629.971 268.927 628.854 269.503C627.829 270.031 626.357 270.491 625.702 271.598C625.007 272.775 625.627 274.7 625.731 275.958C625.879 277.76 625.9 279.616 625.249 281.357C624.18 284.217 621.585 286.525 619.12 287.932C616.611 289.365 613.87 289.837 611.125 289.657C609.293 289.538 607.463 289.252 605.73 288.649C604.869 288.349 604.16 287.897 603.361 287.476C602.585 287.065 602.064 287.161 601.24 287.427C597.416 288.661 593.692 288.537 590.012 287.215C586.906 286.099 583.451 284.348 581.443 281.477C579.212 278.288 580.163 274.97 581.795 271.59C580.982 271.754 578.938 271.442 580.504 270.342C581.124 269.907 582.073 269.916 582.764 269.748C583.57 269.551 584.415 269.245 585.129 268.764C588.008 266.822 587.166 261.074 584.627 259.483C580.854 257.12 578.376 262.687 575.039 263.404C573.12 263.817 571.672 262.162 570.731 260.617C569.471 258.547 568.891 256.096 568.478 253.65C568.139 251.635 567.863 249.611 567.505 247.601C567.337 246.662 566.617 243.943 567.549 243.182C564.762 241.806 561.155 242.151 558.189 243.076C556.963 243.458 555.968 243.975 555.096 244.996C554.909 245.215 554.448 245.891 554.112 245.834C553.488 245.728 553.915 245.044 554.07 244.706Z" fill="#191847"/>
<path fill-rule="evenodd" clip-rule="evenodd" d="M605.414 500.982C580.395 507.979 558.81 511.478 540.659 511.478C522.507 511.478 505.646 506.09 490.078 495.314C514.561 488.131 534.723 484.54 550.566 484.54C566.408 484.54 584.691 490.021 605.414 500.982Z" fill="#1F28CF"/>
<path fill-rule="evenodd" clip-rule="evenodd" d="M519.001 521.564C519.242 521.202 519.445 520.807 519.607 520.38C522.951 511.536 576.516 416.129 581.853 398.686H521.546C517.489 411.948 499.227 495.174 496.657 511.779C488.548 537.972 471.853 622.799 469.722 628.676C467.479 634.858 480.095 641.298 483.457 633.698C488.806 621.605 501.551 588.144 507.226 567.713C512.546 548.558 516.878 531.326 519.001 521.564Z" fill="#784931"/>
<path fill-rule="evenodd" clip-rule="evenodd" d="M568.34 533.213C592.829 539.402 682.404 550.592 688.551 552.347C694.875 554.152 700.419 541.118 692.603 538.295C680.166 533.802 645.898 523.422 625.12 519.186C608.408 515.779 593.158 512.999 582.92 511.371C583.787 482.611 587.752 413.593 585.154 398.686H531.794C534.286 412.981 555.352 517.282 559.268 527.722C560.511 531.449 564.218 533.096 568.34 533.213Z" fill="#915B3C"/>
<path fill-rule="evenodd" clip-rule="evenodd" d="M692.036 534.824C695.305 534.216 697.702 534.046 699.225 534.315C701.077 534.641 703.725 535.427 707.169 536.67C706.79 538.819 703.386 558.128 696.955 594.598C691.713 595.226 689.18 593.883 689.355 590.57C689.53 587.256 689.646 584.499 689.705 582.297L682.45 553.257C682.31 552.698 682.65 552.132 683.209 551.992C683.218 551.99 683.228 551.988 683.237 551.985L687.741 550.995C689.671 548.24 690.802 545.923 691.133 544.046C691.401 542.521 691.157 540.306 690.399 537.402L690.399 537.402C690.108 536.287 690.776 535.148 691.89 534.857C691.938 534.844 691.987 534.833 692.036 534.824Z" fill="#E4E4E4"/>
<path fill-rule="evenodd" clip-rule="evenodd" d="M487.285 632.714C488.451 635.828 489.035 638.159 489.035 639.705C489.035 641.586 488.722 644.33 488.095 647.938C485.913 647.938 466.306 647.938 429.274 647.938C427.745 642.885 428.628 640.157 431.921 639.754C435.214 639.351 437.95 638.987 440.128 638.662L467.468 626.474C467.994 626.24 468.61 626.476 468.845 627.002C468.849 627.011 468.853 627.02 468.857 627.029L470.614 631.292C473.663 632.715 476.14 633.426 478.046 633.426C479.595 633.426 481.734 632.8 484.462 631.549L484.462 631.549C485.509 631.069 486.748 631.529 487.228 632.576C487.248 632.621 487.267 632.667 487.285 632.714Z" fill="#E4E4E4"/>
<path fill-rule="evenodd" clip-rule="evenodd" d="M584.981 398.686C561.467 391.959 539.219 391.959 518.236 398.686C510.936 431.993 493.197 445.213 490.078 496.279C525.536 513.898 569.338 483.714 605.839 500.895C616.268 476.863 601.668 418.985 584.981 398.686Z" fill="#2B44FF"/>
<path fill-rule="evenodd" clip-rule="evenodd" d="M529.365 329.981L497.159 304.171C492.472 296.086 487.595 289.589 482.528 284.679C480.9 283.635 477.903 282.649 479.879 288.259C481.854 293.869 483.68 299.859 481.938 301.173C480.196 302.487 476.93 299.647 474.722 301.951C473.25 303.487 479.005 307.338 491.988 313.505L513.709 341.79L529.365 329.981ZM470.628 336.61L456.486 325.247C455.763 316.499 453.878 311.829 450.831 311.238C448.676 309.732 450.902 321.017 446.613 319.316C442.325 317.615 432.888 307.622 430.727 308.933C427.531 310.871 428.686 318.757 430.941 322.976C435.156 330.861 439.239 334.024 449.818 339.088C455.349 341.735 461.064 346.095 466.965 352.167L470.628 336.61Z" fill="#915B3C"/>
<path fill-rule="evenodd" clip-rule="evenodd" d="M547.493 328.693C535.03 326.36 518.844 320.786 503.066 306.376L493.345 320.706C503.456 335.028 518.925 348.059 534.067 350.293C545.999 352.053 554.6 338.761 547.493 328.693Z" fill="#2026A2"/>
<path fill-rule="evenodd" clip-rule="evenodd" d="M526.28 350.682C512.441 351.65 490.899 343.832 461.654 327.227C451.091 341.874 445.501 352.658 444.882 359.58C469.184 378.282 491.027 388.561 509.856 392.306C507.278 403.415 506.761 414.327 509.627 424.887C515.52 446.595 573.997 437.764 591.914 444.691C610.194 408.992 590.425 389.688 594.665 365.531C599.31 339.076 585.25 294.616 582.125 294.065L553.627 289.041C548.493 308.964 536.653 329.832 526.28 350.682Z" fill="#1F28CF"/>
</g>
<defs>
<clipPath id="clip0_1_3">
<rect width="740" height="680" fill="white"/>
</clipPath>
</defs>
</svg>
