<svg width="350" height="350" viewBox="0 0 350 350" fill="none" xmlns="http://www.w3.org/2000/svg">
<rect width="350" height="344.899" rx="30" fill="#2563EB"/>
<path d="M198.652 74.7811H233.926V213.824C233.926 227.04 231.1 238.342 225.449 247.73C219.798 257.027 212.051 264.182 202.207 269.195C192.363 274.117 181.198 276.578 168.711 276.578C156.042 276.578 144.785 274.436 134.941 270.152C125.189 265.777 117.487 259.169 111.836 250.328C106.276 241.396 103.496 230.139 103.496 216.558H138.77C138.77 227.952 141.504 236.109 146.973 241.031C152.533 245.862 159.779 248.277 168.711 248.277C174.635 248.277 179.831 246.956 184.297 244.312C188.763 241.578 192.272 237.659 194.824 232.555C197.376 227.45 198.652 221.207 198.652 213.824V74.7811Z" fill="white"/>
</svg>
