<svg width="1271" height="433" viewBox="0 0 1271 433" fill="none" xmlns="http://www.w3.org/2000/svg">
<path d="M592.625 123V247.875C592.625 262.792 591.583 273.917 589.5 281.25C587.417 289.583 583.875 296.625 578.875 302.375C569.125 313.792 556.208 319.5 540.125 319.5C527.958 319.5 516.583 316.333 506 310L520.25 285.125C527.333 289.875 533.958 292.25 540.125 292.25C548.792 292.25 554.792 288.958 558.125 282.375C561.625 275.792 563.375 264.292 563.375 247.875V123H592.625ZM627.75 254.25C627.75 236.667 634.042 221.708 646.625 209.375C659.208 197.042 674.542 190.875 692.625 190.875C710.792 190.875 726.208 197.083 738.875 209.5C751.375 221.917 757.625 237.167 757.625 255.25C757.625 273.5 751.333 288.792 738.75 301.125C726.083 313.375 710.542 319.5 692.125 319.5C673.875 319.5 658.583 313.25 646.25 300.75C633.917 288.417 627.75 272.917 627.75 254.25ZM656.5 254.75C656.5 266.917 659.75 276.542 666.25 283.625C672.917 290.792 681.708 294.375 692.625 294.375C703.625 294.375 712.417 290.833 719 283.75C725.583 276.667 728.875 267.208 728.875 255.375C728.875 243.542 725.583 234.083 719 227C712.333 219.833 703.542 216.25 692.625 216.25C681.875 216.25 673.167 219.833 666.5 227C659.833 234.167 656.5 243.417 656.5 254.75ZM815.625 104.875V208.375C826.875 196.708 839.625 190.875 853.875 190.875C870.292 190.875 883.958 197 894.875 209.25C905.792 221.417 911.25 236.583 911.25 254.75C911.25 273.5 905.75 289 894.75 301.25C883.833 313.417 870.042 319.5 853.375 319.5C839.292 319.5 826.708 314.083 815.625 303.25V316H787.5V104.875H815.625ZM882.5 256C882.5 244.333 879.333 234.833 873 227.5C866.583 220 858.542 216.25 848.875 216.25C838.542 216.25 830.125 219.875 823.625 227.125C817.208 234.292 814 243.625 814 255.125C814 266.958 817.167 276.417 823.5 283.5C829.833 290.75 838.167 294.375 848.5 294.375C858.25 294.375 866.333 290.75 872.75 283.5C879.25 276.167 882.5 267 882.5 256ZM969.125 194.25V316H941V194.25H969.125ZM936.75 143.625C936.75 138.708 938.542 134.458 942.125 130.875C945.708 127.292 950 125.5 955 125.5C960.083 125.5 964.417 127.292 968 130.875C971.583 134.375 973.375 138.667 973.375 143.75C973.375 148.833 971.583 153.167 968 156.75C964.5 160.333 960.208 162.125 955.125 162.125C950.042 162.125 945.708 160.333 942.125 156.75C938.542 153.167 936.75 148.792 936.75 143.625ZM1033.88 220.5V316H1005.62V220.5H995.625V194.25H1005.62V147.25C1005.62 131.917 1008.29 121.083 1013.62 114.75C1020.96 105.917 1031.62 101.5 1045.62 101.5C1050.62 101.5 1056.92 102.958 1064.5 105.875V134.625L1061.62 133.125C1055.54 130.042 1050.54 128.5 1046.62 128.5C1041.62 128.5 1038.25 130.292 1036.5 133.875C1034.75 137.375 1033.88 144.125 1033.88 154.125V194.25H1064.5V220.5H1033.88ZM1119.12 293.375L1064.38 194.25H1097L1134.25 264.25L1169 194.25H1200.75L1103.75 382.25H1071.62L1119.12 293.375Z" fill="#2563EB"/>
<rect y="42" width="350" height="344.899" rx="30" fill="#2563EB"/>
<path d="M198.652 116.781H233.926V255.824C233.926 269.04 231.1 280.342 225.449 289.73C219.798 299.027 212.051 306.182 202.207 311.195C192.363 316.117 181.198 318.578 168.711 318.578C156.042 318.578 144.785 316.436 134.941 312.152C125.189 307.777 117.487 301.169 111.836 292.328C106.276 283.396 103.496 272.139 103.496 258.558H138.77C138.77 269.952 141.504 278.109 146.973 283.031C152.533 287.862 159.779 290.277 168.711 290.277C174.635 290.277 179.831 288.956 184.297 286.312C188.763 283.578 192.272 279.659 194.824 274.555C197.376 269.45 198.652 263.207 198.652 255.824V116.781Z" fill="white"/>
</svg>
