<svg width="1276" height="433" viewBox="0 0 1276 433" fill="none" xmlns="http://www.w3.org/2000/svg">
<path d="M597.625 123V247.875C597.625 262.792 596.583 273.917 594.5 281.25C592.417 289.583 588.875 296.625 583.875 302.375C574.125 313.792 561.208 319.5 545.125 319.5C532.958 319.5 521.583 316.333 511 310L525.25 285.125C532.333 289.875 538.958 292.25 545.125 292.25C553.792 292.25 559.792 288.958 563.125 282.375C566.625 275.792 568.375 264.292 568.375 247.875V123H597.625ZM632.75 254.25C632.75 236.667 639.042 221.708 651.625 209.375C664.208 197.042 679.542 190.875 697.625 190.875C715.792 190.875 731.208 197.083 743.875 209.5C756.375 221.917 762.625 237.167 762.625 255.25C762.625 273.5 756.333 288.792 743.75 301.125C731.083 313.375 715.542 319.5 697.125 319.5C678.875 319.5 663.583 313.25 651.25 300.75C638.917 288.417 632.75 272.917 632.75 254.25ZM661.5 254.75C661.5 266.917 664.75 276.542 671.25 283.625C677.917 290.792 686.708 294.375 697.625 294.375C708.625 294.375 717.417 290.833 724 283.75C730.583 276.667 733.875 267.208 733.875 255.375C733.875 243.542 730.583 234.083 724 227C717.333 219.833 708.542 216.25 697.625 216.25C686.875 216.25 678.167 219.833 671.5 227C664.833 234.167 661.5 243.417 661.5 254.75ZM820.625 104.875V208.375C831.875 196.708 844.625 190.875 858.875 190.875C875.292 190.875 888.958 197 899.875 209.25C910.792 221.417 916.25 236.583 916.25 254.75C916.25 273.5 910.75 289 899.75 301.25C888.833 313.417 875.042 319.5 858.375 319.5C844.292 319.5 831.708 314.083 820.625 303.25V316H792.5V104.875H820.625ZM887.5 256C887.5 244.333 884.333 234.833 878 227.5C871.583 220 863.542 216.25 853.875 216.25C843.542 216.25 835.125 219.875 828.625 227.125C822.208 234.292 819 243.625 819 255.125C819 266.958 822.167 276.417 828.5 283.5C834.833 290.75 843.167 294.375 853.5 294.375C863.25 294.375 871.333 290.75 877.75 283.5C884.25 276.167 887.5 267 887.5 256ZM974.125 194.25V316H946V194.25H974.125ZM941.75 143.625C941.75 138.708 943.542 134.458 947.125 130.875C950.708 127.292 955 125.5 960 125.5C965.083 125.5 969.417 127.292 973 130.875C976.583 134.375 978.375 138.667 978.375 143.75C978.375 148.833 976.583 153.167 973 156.75C969.5 160.333 965.208 162.125 960.125 162.125C955.042 162.125 950.708 160.333 947.125 156.75C943.542 153.167 941.75 148.792 941.75 143.625ZM1038.88 220.5V316H1010.62V220.5H1000.62V194.25H1010.62V147.25C1010.62 131.917 1013.29 121.083 1018.62 114.75C1025.96 105.917 1036.62 101.5 1050.62 101.5C1055.62 101.5 1061.92 102.958 1069.5 105.875V134.625L1066.62 133.125C1060.54 130.042 1055.54 128.5 1051.62 128.5C1046.62 128.5 1043.25 130.292 1041.5 133.875C1039.75 137.375 1038.88 144.125 1038.88 154.125V194.25H1069.5V220.5H1038.88ZM1124.12 293.375L1069.38 194.25H1102L1139.25 264.25L1174 194.25H1205.75L1108.75 382.25H1076.62L1124.12 293.375Z" fill="#2563EB"/>
<g filter="url(#filter0_d_770_2)">
<rect x="5" y="42" width="350" height="344.899" rx="30" fill="#2563EB"/>
<rect x="4.5" y="41.5" width="351" height="345.899" rx="30.5" stroke="#2563EB"/>
</g>
<path d="M203.652 116.781H238.926V255.824C238.926 269.04 236.1 280.342 230.449 289.73C224.798 299.027 217.051 306.182 207.207 311.195C197.363 316.117 186.198 318.578 173.711 318.578C161.042 318.578 149.785 316.436 139.941 312.152C130.189 307.777 122.487 301.169 116.836 292.328C111.276 283.396 108.496 272.139 108.496 258.558H143.77C143.77 269.952 146.504 278.109 151.973 283.031C157.533 287.862 164.779 290.277 173.711 290.277C179.635 290.277 184.831 288.956 189.297 286.312C193.763 283.578 197.272 279.659 199.824 274.555C202.376 269.45 203.652 263.207 203.652 255.824V116.781Z" fill="white"/>
<defs>
<filter id="filter0_d_770_2" x="0" y="41" width="360" height="354.899" filterUnits="userSpaceOnUse" color-interpolation-filters="sRGB">
<feFlood flood-opacity="0" result="BackgroundImageFix"/>
<feColorMatrix in="SourceAlpha" type="matrix" values="0 0 0 0 0 0 0 0 0 0 0 0 0 0 0 0 0 0 127 0" result="hardAlpha"/>
<feOffset dy="4"/>
<feGaussianBlur stdDeviation="2"/>
<feComposite in2="hardAlpha" operator="out"/>
<feColorMatrix type="matrix" values="0 0 0 0 0 0 0 0 0 0 0 0 0 0 0 0 0 0 0.25 0"/>
<feBlend mode="normal" in2="BackgroundImageFix" result="effect1_dropShadow_770_2"/>
<feBlend mode="normal" in="SourceGraphic" in2="effect1_dropShadow_770_2" result="shape"/>
</filter>
</defs>
</svg>
