<svg width="886" height="709" viewBox="0 0 886 709" fill="none" xmlns="http://www.w3.org/2000/svg">
<g clip-path="url(#clip0_1_4)">
<path d="M148.558 708.135C148.558 708.135 135.805 676.744 174.063 653.201L148.558 708.135Z" fill="#F0F0F0"/>
<path d="M132.874 707.564C132.874 707.564 128.984 685.19 98.874 685.382L132.874 707.564Z" fill="#F0F0F0"/>
<path d="M575.558 708.135C575.558 708.135 562.805 676.744 601.063 653.201L575.558 708.135Z" fill="#F0F0F0"/>
<path d="M559.874 707.564C559.874 707.564 555.984 685.19 525.874 685.382L559.874 707.564Z" fill="#F0F0F0"/>
<path d="M565.054 504.883C626.276 504.883 675.907 455.253 675.907 394.03C675.907 332.808 626.276 283.178 565.054 283.178C503.831 283.178 454.201 332.808 454.201 394.03C454.201 455.253 503.831 504.883 565.054 504.883Z" fill="#F0F0F0"/>
<path d="M565.358 394.03H565.663L571.145 708.317H559.572L565.358 394.03Z" fill="#F0F0F0"/>
<path d="M803.054 559.938C847.707 559.938 883.907 523.739 883.907 479.085C883.907 434.432 847.707 398.233 803.054 398.233C758.4 398.233 722.201 434.432 722.201 479.085C722.201 523.739 758.4 559.938 803.054 559.938Z" fill="#F0F0F0"/>
<path d="M803.276 479.085H803.498L807.496 708.317H799.055L803.276 479.085Z" fill="#F0F0F0"/>
<path d="M701.225 367.951C802.832 367.951 885.201 285.583 885.201 183.976C885.201 82.3687 802.832 0 701.225 0C599.618 0 517.249 82.3687 517.249 183.976C517.249 285.583 599.618 367.951 701.225 367.951Z" fill="#E4E4E4"/>
<path opacity="0.1" d="M837.067 61.0944C854.228 101.237 856.556 146.173 843.635 187.873C830.714 229.574 803.386 265.322 766.535 288.728C729.684 312.135 685.71 321.675 642.472 315.645C599.234 309.614 559.549 288.406 530.509 255.809C540.992 280.334 556.682 302.287 576.492 320.146C596.301 338.006 619.757 351.345 645.233 359.24C670.71 367.134 697.598 369.395 724.035 365.867C750.473 362.338 775.827 353.104 798.341 338.803C820.855 324.503 839.991 305.479 854.423 283.049C868.855 260.619 878.238 235.32 881.921 208.904C885.605 182.488 883.501 155.587 875.756 130.064C868.011 104.542 854.81 81.0083 837.067 61.0944V61.0944Z" fill="black"/>
<path d="M700.72 183.975H700.214L691.116 705.577H710.323L700.72 183.975Z" fill="#E4E4E4"/>
<path d="M835 707.802H1C0.734784 707.802 0.480429 707.696 0.292892 707.509C0.105356 707.321 0 707.067 0 706.802C0 706.536 0.105356 706.282 0.292892 706.094C0.480429 705.907 0.734784 705.802 1 705.802H835C835.265 705.802 835.52 705.907 835.707 706.094C835.895 706.282 836 706.536 836 706.802C836 707.067 835.895 707.321 835.707 707.509C835.52 707.696 835.265 707.802 835 707.802Z" fill="#CACACA"/>
<path fill-rule="evenodd" clip-rule="evenodd" d="M342.627 325.299C347.433 319.659 350.686 312.746 350.142 305C348.576 282.681 317.508 287.591 311.465 298.856C305.421 310.12 306.139 338.693 313.95 340.706C317.065 341.509 323.7 339.543 330.454 335.472L326.215 365.461H351.244L342.627 325.299Z" fill="#57331F"/>
<path fill-rule="evenodd" clip-rule="evenodd" d="M329.202 307.465C328.244 320.811 325.71 327.484 321.599 327.484C315.433 327.484 310.201 323.569 307.495 323.569C305.523 323.569 305.963 326.037 307.271 327.867C308.349 329.377 313.602 330.832 313.602 333.173C313.602 335.514 309.452 333.703 309.452 335.091C309.452 337.388 308.722 341.705 312.708 341.705C316.741 341.705 328.306 340.235 330.288 334.249C331.567 330.385 332.394 322.38 332.769 310.232C333.013 310.203 333.262 310.188 333.515 310.188C336.971 310.188 339.772 312.989 339.772 316.445C339.772 318.199 339.05 319.785 337.887 320.921C339.335 322.965 340.958 325.1 342.817 327.303C349.802 323.112 354.986 310.844 348.157 299.058C346.269 293.285 341.996 290.201 336.949 288.769C332.861 287.059 328.617 286.866 325.034 287.891C318.011 288.494 311.74 290.635 309.963 291.907C309.963 298.555 311.251 300.528 322.255 300.354C324.959 301.782 327.037 304.241 329.202 307.465Z" fill="#191847"/>
<path fill-rule="evenodd" clip-rule="evenodd" d="M353.252 451.764L302.065 581.319L267.734 690.848H254.177L306.662 451.764L353.252 451.764Z" fill="#3D2216"/>
<path fill-rule="evenodd" clip-rule="evenodd" d="M363.559 451.764C364.104 497.29 372.054 558.585 373.324 561.423C374.17 563.315 403.398 587.374 461.008 633.6L451.671 643.592C383.697 603.959 348.137 581.499 344.991 576.213C340.273 568.284 324.912 495.318 312.579 451.764H363.559Z" fill="#57331F"/>
<path fill-rule="evenodd" clip-rule="evenodd" d="M462.257 630.265C465.393 631.373 467.553 632.424 468.738 633.418C470.178 634.627 472.079 636.631 474.44 639.43C473.038 641.102 460.435 656.122 436.631 684.49C431.777 682.413 430.255 679.983 432.063 677.201C433.871 674.42 435.351 672.09 436.502 670.213L444.739 641.435C444.898 640.881 445.475 640.561 446.029 640.719C446.038 640.722 446.048 640.725 446.057 640.728L450.452 642.122C453.502 640.701 455.639 639.26 456.864 637.8C457.86 636.614 458.755 634.573 459.551 631.679L459.551 631.679C459.856 630.568 461.004 629.915 462.115 630.22C462.163 630.234 462.21 630.249 462.257 630.265Z" fill="#E4E4E4"/>
<path fill-rule="evenodd" clip-rule="evenodd" d="M273.285 685.791C274.451 688.906 275.035 691.236 275.035 692.783C275.035 694.663 274.722 697.408 274.095 701.016C271.913 701.016 252.306 701.016 215.274 701.016C213.745 695.962 214.628 693.234 217.921 692.831C221.214 692.428 223.95 692.064 226.128 691.74L253.468 679.552C253.994 679.317 254.61 679.553 254.845 680.079C254.849 680.088 254.853 680.098 254.857 680.107L256.614 684.37C259.663 685.792 262.14 686.503 264.046 686.503C265.595 686.503 267.734 685.878 270.462 684.627L270.462 684.627C271.509 684.147 272.748 684.607 273.228 685.654C273.248 685.699 273.267 685.745 273.285 685.791Z" fill="#E4E4E4"/>
<path fill-rule="evenodd" clip-rule="evenodd" d="M318.836 679.566L254.381 672.571L302.15 451.764H359.881L318.836 679.566Z" fill="#69A1AC"/>
<path fill-rule="evenodd" clip-rule="evenodd" d="M447.676 617.48L405.397 667.524C360.865 618.888 334.903 587.152 327.511 572.318C320.118 557.484 313.473 517.299 307.574 451.764H372.568C375.79 509.419 377.962 539.588 379.084 542.271C380.206 544.954 403.07 570.024 447.676 617.48Z" fill="#89C5CC"/>
<path fill-rule="evenodd" clip-rule="evenodd" d="M262.027 438.831L232.484 467.651C223.888 471.318 216.845 475.367 211.354 479.797C210.12 481.287 208.775 484.14 214.585 482.863C220.394 481.586 226.562 480.504 227.653 482.394C228.745 484.283 225.528 487.178 227.546 489.65C228.891 491.299 233.415 486.056 241.118 473.921L271.839 455.809L262.027 438.831ZM406.492 412.747L383.655 412.833C401.049 469.185 410.281 498.689 411.354 501.347C413.767 507.328 408.661 516.436 406.477 521.331C413.589 524.514 412.831 512.727 421.804 516.901C429.993 520.711 436.223 527.615 445.685 521.777C446.848 521.059 448.123 518.356 445.043 516.244C437.37 510.983 426.312 501.774 424.818 498.743C422.78 494.61 416.672 465.944 406.492 412.747Z" fill="#57331F"/>
<path fill-rule="evenodd" clip-rule="evenodd" d="M336.905 347.965L327.887 346.418C313.681 396.636 240.69 430.866 236.209 449.638C234.566 456.523 239.52 460.003 236.961 462.1L248.683 470.681C250.668 468.365 254.904 472.601 263.749 469.638C272.595 466.674 336.905 407.427 336.905 347.965Z" fill="#191847"/>
<path fill-rule="evenodd" clip-rule="evenodd" d="M321.735 354.641C322.775 421.125 284.342 438.084 292.903 464.755C299.972 486.779 367.636 510.455 379.345 488.866C384.085 480.127 386.235 469.558 386.479 458.067C389.472 466.895 391.839 474.495 393.58 480.867C396.583 491.859 408.227 493.606 408.227 497.841L423.568 493.606C422.527 487.854 429.759 485.052 427.82 472.2C419.132 414.614 395.788 372.872 357.789 346.973L357.396 341.351C357.235 339.053 355.242 337.32 352.944 337.481L324.854 339.445C322.556 339.606 320.823 341.599 320.984 343.898L321.735 354.641Z" fill="#2F3676"/>
</g>
<defs>
<clipPath id="clip0_1_4">
<rect width="885.201" height="708.317" fill="white"/>
</clipPath>
</defs>
</svg>
